<?xml version="1.0" encoding="UTF-8" standalone="no"?><!DOCTYPE svg PUBLIC "-//W3C//DTD SVG 1.1//EN" "http://www.w3.org/Graphics/SVG/1.1/DTD/svg11.dtd"><svg width="100%" height="100%" viewBox="0 0 1647 760" version="1.1" xmlns="http://www.w3.org/2000/svg" xmlns:xlink="http://www.w3.org/1999/xlink" xml:space="preserve" xmlns:serif="http://www.serif.com/" style="fill-rule:evenodd;clip-rule:evenodd;stroke-linejoin:round;stroke-miterlimit:2;"><g id="extended"><path d="M519.458,543.91l-10.416,35.549l-145.125,101.618l-94.909,-6.674l-6.239,-22.803l-24.331,20.654l-94.795,-6.666l-73.767,-262.511l-0,-231.58l145.125,-101.618l110.911,7.8c20.979,1.475 39.015,6.83 54.242,15.593c11.738,6.751 21.53,15.23 29.406,25.406c4.245,-3.662 28.676,-20.583 37.771,-24.524c15.198,-6.586 34.156,-9.565 57.007,-7.958c13.926,0.979 27.681,3.701 41.262,8.184c14.25,4.704 26.909,11.206 38.029,19.408l16.176,11.93l-27.372,72.769c8.713,7.025 15.826,15.827 21.22,26.5c2.211,4.372 4.03,9.136 5.407,14.303l26.191,-18.339l69.28,4.872c12.957,0.911 24.09,4.197 33.495,9.528c9.462,5.36 16.897,12.488 22.364,21.326l48.021,3.377c4.352,-0.676 9.012,-0.863 13.99,-0.513l17.479,1.229l-0,9.625c0.485,-0.261 0.975,-0.517 1.471,-0.767c9.915,-5.006 21.268,-7.259 34.132,-6.354c6.551,0.461 12.709,1.682 18.484,3.636l-0.311,-0.861l71.3,5.014l1.624,4.707c2.395,-2.028 49.616,-34.398 49.959,-34.72l0.002,-0.002c6.896,-6.463 15.822,-9.868 27.148,-9.071c10.451,0.735 18.712,4.675 25.072,11.159c6.785,6.916 10.288,15.378 10.288,25.474c0,2.806 -0.256,5.459 -0.754,7.964l38.272,-28.948l66.849,4.701l-0,47.341c2.645,-1.985 5.48,-3.754 8.505,-5.31c9.892,-5.09 21.01,-7.354 33.415,-6.481c11.373,0.8 21.726,4.148 31.081,9.971c0.938,0.584 1.858,1.189 2.76,1.816l4.348,0.306l-0,-7.91l61.144,4.3c4.207,-0.694 8.615,-0.891 13.227,-0.567c9.746,0.685 18.479,3.524 26.244,8.376c6.704,4.19 12.338,9.906 16.736,17.293c1.99,-1.452 4.087,-2.789 6.292,-4.011c3.861,-3.378 8.194,-6.251 13.001,-8.618c10.042,-4.946 21.471,-7.152 34.356,-6.246c13.205,0.929 24.547,4.982 34.134,11.845c3.784,2.709 7.163,5.758 10.13,9.152l0.275,-0.153c3.564,-3.127 7.523,-5.807 11.875,-8.046c9.892,-5.09 21.01,-7.354 33.415,-6.481c11.373,0.8 21.726,4.148 31.081,9.971c9.496,5.91 17.122,14.025 22.768,24.445c5.388,9.944 8.302,21.722 8.302,35.438c0,1.52 -0.052,3.219 -0.163,5.096c-0.097,1.638 -0.203,3.138 -0.318,4.498l-3.659,18.326l3.889,4.763l-10.383,11.952c-4.312,4.963 -72.959,53.217 -76.685,55.218l-0.128,0.114l-0,5.941c1.847,-0.046 3.744,-0.002 5.69,0.135c11.077,0.779 21.114,4.317 30.122,10.583c8.716,6.063 15.735,14.233 20.893,24.651c4.852,9.8 7.446,21.158 7.446,34.149c0,13.289 -2.735,24.541 -7.698,33.867c-5.469,10.276 -12.929,17.909 -22.172,23.1l-0.002,0.001c-0.248,0.139 -99.233,69.958 -102.654,71.879l-0.002,0.001c-9.343,5.244 -19.735,7.577 -31.226,6.769c-4.829,-0.34 -9.306,-1.167 -13.446,-2.443l-56.456,-3.97l0,-8.904c-2.873,1.685 -5.938,3.121 -9.196,4.307l-0.001,0.001c-8.055,2.93 -17.536,4.214 -28.492,3.443c-13.201,-0.928 -24.689,-4.653 -34.553,-10.897l-0.001,-0.001c-4.493,-2.845 -8.536,-6.08 -12.132,-9.702l-7.007,-0.493l-12.576,14.935l-60.908,-4.283l-2.926,-10.516l-10.973,9.538l-60.816,-4.277l-7.922,-27.679c-1.296,0.855 -2.634,1.665 -4.015,2.43c-3.112,2.725 -6.534,5.121 -10.266,7.188c-3.692,3.233 -7.82,6.002 -12.384,8.309l-0.002,0.001c-9.997,5.051 -21.377,7.313 -34.209,6.41c-12.517,-0.88 -23.585,-4.563 -33.268,-10.858l-0.002,-0.001c-0.5,-0.325 -0.995,-0.656 -1.485,-0.992l-5.888,-0.414l-0,7.91l-107.07,-7.53c-4.18,0.683 -8.703,0.885 -13.582,0.542c-10.941,-0.769 -20.963,-4.309 -30.058,-10.645l-0.001,-0.001c-0.456,-0.318 -0.907,-0.641 -1.353,-0.97l-3.574,7.659l-60.113,-4.227c-4.069,0.709 -8.277,0.915 -12.624,0.609c-10.014,-0.704 -18.952,-3.597 -26.868,-8.52l-0.002,-0.001c-2.07,-1.288 -4.037,-2.719 -5.898,-4.296l-2.023,1.3c-4.486,2.884 -9.846,5.002 -16.178,6.089c-5.027,0.863 -10.261,1.122 -15.703,0.739c-16.054,-1.129 -28.311,-6.919 -37.226,-16.321l-0.002,-0.002c-1.973,-2.082 -3.766,-4.359 -5.362,-6.838c-1.332,0.879 -13.634,9.629 -19.659,12.229c-9.389,4.051 -21.162,5.93 -35.414,4.928c-10.593,-0.745 -20.794,-2.922 -30.61,-6.519l-0.002,-0.001c-10.432,-3.826 -18.852,-8.56 -25.398,-13.948l-10.728,-8.831l17.882,-43.382c-2.559,-3.011 -4.797,-6.375 -6.698,-10.106l-0.002,-0.004c-1.09,-2.141 -2.034,-4.436 -2.813,-6.888Zm27.004,-92.166l-10.279,35.083c15.761,-12.832 42.363,-31.835 43.655,-32.736l-33.376,-2.347Z"/><path d="M536.462,656.409l-0.007,-0.003c-14.208,-5.211 -25.583,-11.822 -34.498,-19.159l-9.636,-7.931l-119.551,83.71l-253.261,-17.81l-80.883,-287.834l-0,-252.155l167.522,-117.3l121.957,8.576c26.182,1.841 48.628,8.743 67.633,19.678c6.264,3.603 12.099,7.587 17.514,11.946c8.377,-5.444 16.819,-10.554 21.658,-12.65c19.111,-8.281 42.887,-12.478 71.623,-10.457c16.491,1.16 32.783,4.373 48.866,9.683c17.538,5.79 33.095,13.839 46.781,23.933l35.197,25.96l-28.68,76.244c0.606,0.756 1.204,1.522 1.792,2.297l5.91,-4.138l80.326,5.649c18.091,1.272 33.577,6.07 46.709,13.512c8.926,5.057 16.631,11.181 23.162,18.326l30.889,2.173c5.399,-0.593 11.1,-0.717 17.11,-0.294l46.537,3.273l-0,0.191c2.151,0.024 4.332,0.114 6.545,0.269c6.195,0.436 12.141,1.363 17.845,2.752l68.22,4.797c12.543,-8.736 28.117,-19.5 33.294,-23.091c12.639,-11.05 28.634,-17.176 48.845,-15.755c18.888,1.328 33.693,8.729 45.189,20.449c1.225,1.249 2.393,2.524 3.504,3.826l12.491,-9.448l107.601,7.567l-0,33.388c4.179,-0.227 8.466,-0.192 12.863,0.117c5.984,0.421 11.773,1.33 17.369,2.719l78.727,5.537c5.289,-0.611 10.775,-0.74 16.463,-0.34c15.092,1.061 28.59,5.535 40.613,13.049c1.73,1.081 3.417,2.224 5.06,3.429c0.2,-0.1 0.402,-0.2 0.603,-0.3c14.729,-7.254 31.454,-10.712 50.353,-9.383c16.94,1.191 31.745,6.023 44.609,13.937c13.579,-6.05 28.615,-8.787 45.221,-7.62c16.618,1.169 31.731,6.104 45.401,14.612c14.042,8.739 25.382,20.679 33.732,36.088c7.662,14.139 12.076,30.824 12.076,50.326c0,2.069 -0.066,4.382 -0.217,6.937c-0.114,1.923 -0.239,3.683 -0.374,5.28l-0.148,1.762l-1.118,5.601l11.208,13.729l-27.643,31.82c-2.314,2.664 -21.11,16.574 -40.507,30.578c10.086,8.34 18.443,18.836 24.814,31.705c6.828,13.792 10.69,29.731 10.69,48.014c0,19.078 -4.236,35.159 -11.362,48.548c-8.47,15.916 -20.14,27.626 -34.457,35.666l-15.302,4.003l-0.003,-0.012c-0.05,-0.482 -1.489,-14.355 -3.898,-28.498c2.464,-1.734 3.87,-2.722 3.9,-2.739l0.002,-0.001c9.244,-5.191 16.704,-12.824 22.172,-23.1c4.963,-9.327 7.698,-20.578 7.698,-33.867c0,-12.991 -2.594,-24.349 -7.446,-34.149c-5.157,-10.418 -12.177,-18.589 -20.893,-24.651c-9.008,-6.266 -19.045,-9.804 -30.122,-10.583c-1.947,-0.137 -3.843,-0.181 -5.69,-0.135l0,-5.941l0.128,-0.114c3.726,-2.001 72.373,-50.255 76.685,-55.218l10.383,-11.952l-3.889,-4.763l3.659,-18.326c0.115,-1.361 0.221,-2.86 0.318,-4.498c0.111,-1.877 0.163,-3.575 0.163,-5.096c0,-13.715 -2.913,-25.494 -8.302,-35.438c-5.647,-10.421 -13.272,-18.536 -22.768,-24.445c-9.355,-5.823 -19.708,-9.171 -31.081,-9.971c-12.405,-0.872 -23.524,1.391 -33.415,6.481c-4.352,2.238 -8.311,4.919 -11.875,8.046l-0.275,0.153c-2.968,-3.394 -6.346,-6.444 -10.13,-9.152c-1.999,-1.431 -4.074,-2.739 -6.226,-3.923l-3.979,-10.568c0.479,-0.42 0.962,-0.835 1.45,-1.244c-3.119,2.376 -5.205,4.995 -6.463,7.762c-5.822,-2.089 -12.122,-3.394 -18.916,-3.872c-12.885,-0.906 -24.314,1.3 -34.356,6.246c-4.807,2.367 -9.14,5.239 -13.001,8.618c-2.205,1.222 -4.302,2.559 -6.292,4.011c-4.399,-7.386 -10.032,-13.103 -16.736,-17.293c-7.764,-4.852 -16.497,-7.691 -26.244,-8.376c-4.612,-0.324 -9.02,-0.128 -13.227,0.567l-61.144,-4.3l0,7.91l-4.348,-0.306c-0.902,-0.627 -1.821,-1.232 -2.76,-1.816c-9.355,-5.823 -19.708,-9.171 -31.081,-9.971c-12.405,-0.872 -23.524,1.391 -33.415,6.481c-3.025,1.556 -5.86,3.326 -8.505,5.31l0,-47.341l-66.849,-4.701l-38.272,28.948c0.498,-2.506 0.754,-5.158 0.754,-7.964c0,-10.097 -3.504,-18.558 -10.288,-25.474c-6.36,-6.485 -14.622,-10.425 -25.072,-11.159c-11.325,-0.796 -20.252,2.608 -27.148,9.071l-0.002,0.002c-0.082,0.077 -2.86,1.997 -7.069,4.9c-4.559,-15.189 -10.324,-30.763 -14.121,-27.854c-0.089,0.074 -0.152,0.128 -0.179,0.152l11.67,29.515c-0.002,0.001 -0.003,0.002 -0.005,0.003l-11.673,-29.511c-13.798,12.939 -8.137,26.634 0.812,37c-13.185,9.096 -28.076,19.4 -29.394,20.516l-1.624,-4.707l-51.015,-3.588l5.211,-6.897l-6.657,6.795l-18.839,-1.325l0.311,0.861c-5.775,-1.954 -11.933,-3.175 -18.484,-3.636c-12.864,-0.905 -24.217,1.348 -34.132,6.354c-0.495,0.25 -0.985,0.506 -1.471,0.767l0,-9.625l-17.479,-1.229c-4.978,-0.35 -9.638,-0.163 -13.99,0.513l-48.021,-3.377c-5.467,-8.837 -12.902,-15.966 -22.364,-21.326c-9.404,-5.33 -20.538,-8.616 -33.495,-9.528l-69.28,-4.872l-26.191,18.339c-1.376,-5.168 -3.196,-9.932 -5.407,-14.303c-5.394,-10.673 -12.507,-19.475 -21.22,-26.5l27.372,-72.769l-16.176,-11.93c-11.12,-8.201 -23.779,-14.703 -38.029,-19.408c-13.581,-4.484 -27.336,-7.205 -41.262,-8.184c-22.851,-1.607 -41.81,1.373 -57.007,7.958c-9.095,3.94 -33.527,20.861 -37.771,24.524c-7.877,-10.176 -17.669,-18.655 -29.406,-25.406c-15.227,-8.762 -33.263,-14.117 -54.242,-15.593l-110.911,-7.8l-145.125,101.618l0,231.58l73.767,262.511l94.795,6.666l24.331,-20.654l6.239,22.803l94.909,6.674l145.125,-101.618l1.37,-4.674l10.25,6.28l-9.573,23.225l10.728,8.831c6.546,5.388 14.966,10.122 25.398,13.948l0.002,0.001c9.815,3.598 20.017,5.774 30.61,6.519c14.252,1.002 26.026,-0.877 35.414,-4.928c6.025,-2.6 18.327,-11.35 19.659,-12.229c1.596,2.479 3.389,4.757 5.362,6.838l0.002,0.002c8.914,9.401 21.171,15.192 37.226,16.321c5.443,0.383 10.677,0.124 15.703,-0.739c6.332,-1.087 11.691,-3.205 16.178,-6.089l2.023,-1.3c1.861,1.577 3.828,3.008 5.898,4.296l0.002,0.001c7.916,4.923 16.854,7.816 26.868,8.52c4.347,0.306 8.555,0.1 12.624,-0.609l60.113,4.227l3.574,-7.659c0.446,0.329 0.897,0.652 1.353,0.97l0.001,0.001c9.095,6.337 19.117,9.876 30.058,10.645c4.879,0.343 9.402,0.142 13.582,-0.542l107.07,7.53l0,-7.91l5.888,0.414c0.489,0.336 0.984,0.667 1.485,0.992l0.002,0.001c9.683,6.294 20.75,9.977 33.268,10.858c4.454,0.313 8.734,0.245 12.841,-0.188c7.702,13.389 21.164,24.852 21.368,25.026l0.002,0.002c0,0 3.075,0.448 7.966,-0.94l-0.257,-0.898l-7.709,1.838l-0.003,-0.011c-0.038,-0.472 -1.21,-15.056 -3.404,-29.649c1.152,-0.494 2.288,-1.024 3.405,-1.589l0.002,-0.001c4.563,-2.307 8.691,-5.076 12.384,-8.309c3.731,-2.067 7.153,-4.463 10.266,-7.188c1.381,-0.765 2.719,-1.575 4.015,-2.43l7.922,27.679l60.816,4.277l10.973,-9.538l2.926,10.516l60.908,4.283l12.576,-14.935l7.007,0.493c3.596,3.622 7.639,6.857 12.132,9.702l0.001,0.001c9.864,6.244 21.352,9.969 34.553,10.897c6.736,0.474 12.915,0.171 18.548,-0.814l8.878,5.086c-0.165,-2.345 -0.355,-4.748 -0.573,-7.149c0.553,-0.181 1.099,-0.37 1.639,-0.567l0.001,-0.001c3.258,-1.186 6.322,-2.622 9.196,-4.307l-0,8.904l56.456,3.97c4.14,1.276 8.618,2.103 13.446,2.443c3.203,0.225 6.321,0.206 9.354,-0.051c7.861,13.233 21.653,24.355 21.871,24.53l0.002,0.002c0,0 6.432,0.975 15.294,-3.999c-14.584,8.186 -30.778,11.952 -48.714,10.691c-5.88,-0.414 -11.414,-1.324 -16.616,-2.666l-72.368,-5.089c-5.838,0.562 -12.038,0.65 -18.607,0.188c-16.548,-1.164 -31.161,-5.551 -44,-12.658l-6.412,7.616l-173.31,-12.188l-2.496,-8.72c-13.263,5.548 -28.046,8.069 -44.472,6.914c-6.198,-0.436 -12.145,-1.36 -17.85,-2.752l-126.655,-8.907c-5.259,0.598 -10.852,0.734 -16.789,0.317c-5.667,-0.399 -11.173,-1.284 -16.516,-2.659l-75.244,-5.292c-5.184,0.625 -10.504,0.759 -15.963,0.375c-11.845,-0.833 -22.692,-3.715 -32.604,-8.454c-3.422,1.099 -7.047,1.994 -10.884,2.652c-7.422,1.275 -15.148,1.678 -23.184,1.113c-17.928,-1.261 -32.682,-6.551 -44.715,-14.842c-1.075,0.562 -2.073,1.048 -2.96,1.43l-0.002,0.001c-13.269,5.725 -29.844,8.824 -49.986,7.408c-13.556,-0.953 -26.611,-3.747 -39.172,-8.351c6.592,2.416 10.753,1.908 10.753,1.908l-10.753,-1.908Zm986.88,-14.009c0,0 6.432,0.975 15.294,-3.999c-0.248,0.139 -99.227,69.955 -102.648,71.876l-15.302,4.003l-0.003,-0.012c-0.051,-0.49 -1.537,-14.811 -4.017,-29.191c1.36,-0.623 2.7,-1.306 4.018,-2.046l0.002,-0.001c2.498,-1.403 55.984,-39.032 84.735,-59.271c7.809,10.488 17.734,18.491 17.919,18.64l0.002,0.002Zm-216.196,49.408l3.213,18.231l0,-0.008l-3.213,-18.223Zm216.192,-49.42l0.001,0.01l-4.629,-17.704l4.628,17.694Zm-6.901,-26.385l2.272,8.691l-2.273,-8.691c0,-0 0.001,-0 0.001,-0.001Zm-995.776,-34.938l-10.249,-6.284l9.045,-30.871c0.779,2.452 1.722,4.746 2.813,6.888l0.002,0.004c1.901,3.73 4.139,7.095 6.698,10.106l-8.309,20.157Zm524.725,106.971l-4.238,-17.786l4.238,17.777l0.001,0.009Zm-4.238,-17.786l-2.516,-10.553c0,-0 0.001,-0 0.001,-0l2.515,10.553Zm379.535,44.03l-4.6,-17.594l4.6,17.584l0.001,0.01Zm-4.6,-17.594l-2.679,-10.241c0,-0 0.001,-0 0.001,-0l2.678,10.241Zm-705.168,-30.926l-12.135,-3.468l0.008,0.005l12.127,3.463Zm0,0c-0.688,0.26 -1.384,0.512 -2.089,0.754c3.973,0.885 6.465,0.496 6.465,0.496l-4.376,-1.25Zm-76.741,-12.996l-18.596,-7.998l0.007,0.008l18.588,7.991Zm0,0c-0.793,0.473 -1.579,0.934 -2.348,1.374c3.799,0.756 6.354,0.393 6.433,0.382l-4.085,-1.756Zm326.704,25.778l8.566,2.539l0.001,-0.001l-8.576,-2.544l0.009,0.006Zm-158.917,-11.691l17.863,5.609l-17.87,-5.614l0.006,0.004Zm428.639,30.891l6.116,1.773l-0.835,0.992c6.745,2.815 11.433,2.08 11.433,2.08l-16.719,-4.849l0.006,0.004Zm-684.137,-245.997l33.376,2.347c-1.292,0.9 -27.894,19.903 -43.655,32.736l10.279,-35.083Z" style="fill:#fff;"/><g id="inner_short"><path d="M96.452,404.047l0,-204.043l82.472,5.8c16.554,1.164 30.839,5.204 42.854,12.118c12.018,6.912 21.291,16.258 27.818,28.04c6.53,11.779 9.794,25.417 9.794,40.914c0,15.44 -3.265,28.558 -9.794,39.355c-6.527,10.794 -15.799,18.836 -27.818,24.128c-12.015,5.288 -26.3,7.351 -42.854,6.186l-54.09,-3.804l22.793,-23.588l0,78.493l-51.176,-3.599Zm51.176,-68.581l-22.793,-28.27l51.095,3.593c10.684,0.751 18.662,-1.322 23.935,-6.219c5.276,-4.9 7.914,-12.008 7.914,-21.323c0,-9.373 -2.638,-16.879 -7.914,-22.518c-5.273,-5.642 -13.252,-8.839 -23.935,-9.59l-51.095,-3.593l22.793,-25.064l0,112.984Z" style="fill:#00a0f4;fill-rule:nonzero;"/><path d="M350.128,425.917c-14.778,-1.039 -29.013,-4.104 -42.705,-9.193c-13.692,-5.092 -24.833,-11.23 -33.423,-18.414l16.821,-41.539c8.13,6.511 17.504,11.99 28.12,16.438c10.616,4.448 21.131,7.038 31.542,7.77c7.138,0.502 12.825,0.21 17.063,-0.877c4.24,-1.089 7.349,-2.813 9.326,-5.169c1.977,-2.357 2.966,-5.184 2.966,-8.481c0,-4.597 -1.862,-8.381 -5.585,-11.351c-3.721,-2.973 -8.619,-5.552 -14.694,-7.738c-6.075,-2.188 -12.749,-4.41 -20.021,-6.664c-7.272,-2.254 -14.575,-4.984 -21.909,-8.19c-7.331,-3.206 -14.035,-7.211 -20.11,-12.017c-6.075,-4.806 -10.974,-10.922 -14.698,-18.35c-3.721,-7.43 -5.581,-16.587 -5.581,-27.469c0,-12.088 2.955,-22.911 8.866,-32.47c5.911,-9.559 14.8,-16.909 26.667,-22.05c11.87,-5.144 26.729,-7.088 44.578,-5.833c11.744,0.826 23.342,3.129 34.795,6.91c11.453,3.781 21.648,8.968 30.586,15.559l-15.614,41.51c-8.634,-5.842 -17.166,-10.336 -25.598,-13.482c-8.429,-3.149 -16.631,-5.004 -24.605,-5.565c-7.03,-0.494 -12.695,-0.068 -16.994,1.278c-4.299,1.343 -7.395,3.313 -9.286,5.91c-1.889,2.594 -2.833,5.568 -2.833,8.923c0,4.463 1.86,8.148 5.581,11.055c3.724,2.903 8.621,5.401 14.694,7.492c6.075,2.088 12.778,4.243 20.11,6.465c7.334,2.219 14.637,4.916 21.909,8.09c7.275,3.171 13.95,7.145 20.025,11.92c6.075,4.775 10.973,10.845 14.694,18.208c3.724,7.361 5.585,16.385 5.585,27.073c0,11.893 -2.969,22.618 -8.907,32.175c-5.938,9.557 -14.826,16.942 -26.663,22.155c-11.835,5.21 -26.736,7.183 -44.703,5.92Z" style="fill:#ffc409;fill-rule:nonzero;"/><path d="M164.16,640.388l-58.577,-208.162l52.746,3.709l49.15,180.067l-26.458,-1.861l51.753,-172.971l47.148,3.316l48.96,180.054l-25.412,-1.787l50.901,-173.031l48.637,3.42l-58.577,199.923l-54.763,-3.851l-41.878,-153.071l14.678,1.032l-43.464,147.07l-54.844,-3.857Z" style="fill:#dd2d4a;fill-rule:nonzero;"/></g><g id="inner_long" transform="matrix(0.508513,0.035761,0,0.515469,93.02891,84.211229)"><g transform="matrix(0.913866,0,0,1,74.111905,0)"><g transform="matrix(331.314468,0,0,331.314468,860.423674,614.588338)"><path d="M0.07,-0l0,-0.7l0.319,0c0.064,0 0.119,0.01 0.166,0.031c0.047,0.021 0.082,0.051 0.108,0.089c0.025,0.039 0.038,0.085 0.038,0.138c0,0.053 -0.013,0.099 -0.038,0.137c-0.025,0.039 -0.061,0.068 -0.108,0.089c-0.047,0.021 -0.102,0.032 -0.166,0.032l-0.209,0l0.088,-0.086l0,0.269l-0.198,-0Zm0.198,-0.248l-0.088,-0.091l0.198,0c0.041,0 0.072,-0.009 0.093,-0.027c0.02,-0.018 0.031,-0.043 0.031,-0.075c0,-0.032 -0.01,-0.057 -0.031,-0.075c-0.02,-0.018 -0.051,-0.027 -0.093,-0.027l-0.198,0l0.088,-0.091l0,0.388Z" style="fill:#fff;fill-rule:nonzero;"/></g><g transform="matrix(331.314468,0,0,331.314468,1102.789728,614.588338)"><path d="M0.061,-0l0,-0.542l0.181,0l0,0.158l-0.028,-0.045c0.016,-0.04 0.042,-0.071 0.078,-0.091c0.036,-0.02 0.079,-0.031 0.131,-0.031l0,0.171c-0.008,-0.001 -0.016,-0.002 -0.022,-0.003c-0.007,-0.001 -0.013,-0.001 -0.02,-0.001c-0.039,-0 -0.07,0.011 -0.094,0.032c-0.024,0.021 -0.036,0.056 -0.036,0.103l0,0.249l-0.19,-0Z" style="fill:#fff;fill-rule:nonzero;"/></g><g transform="matrix(331.314468,0,0,331.314468,1247.024246,614.588338)"><path d="M0.333,0.009c-0.059,0 -0.112,-0.012 -0.158,-0.036c-0.046,-0.024 -0.082,-0.057 -0.109,-0.099c-0.026,-0.042 -0.04,-0.091 -0.04,-0.145c0,-0.055 0.013,-0.103 0.04,-0.145c0.026,-0.042 0.063,-0.075 0.108,-0.099c0.046,-0.024 0.099,-0.036 0.158,-0.036c0.06,0 0.112,0.012 0.159,0.036c0.046,0.024 0.082,0.057 0.108,0.099c0.026,0.042 0.039,0.09 0.039,0.145c0,0.055 -0.013,0.103 -0.039,0.145c-0.026,0.042 -0.062,0.075 -0.109,0.099c-0.046,0.024 -0.099,0.036 -0.159,0.036Zm0,-0.151c0.022,0 0.041,-0.005 0.058,-0.015c0.017,-0.01 0.031,-0.025 0.041,-0.044c0.01,-0.02 0.015,-0.043 0.015,-0.07c-0,-0.028 -0.005,-0.051 -0.015,-0.07c-0.01,-0.019 -0.024,-0.033 -0.041,-0.043c-0.017,-0.01 -0.036,-0.015 -0.058,-0.015c-0.022,0 -0.041,0.005 -0.058,0.015c-0.017,0.01 -0.031,0.024 -0.041,0.043c-0.01,0.019 -0.015,0.042 -0.015,0.07c0,0.027 0.005,0.05 0.015,0.07c0.01,0.02 0.024,0.034 0.041,0.044c0.017,0.01 0.036,0.015 0.058,0.015Z" style="fill:#fff;fill-rule:nonzero;"/></g><g transform="matrix(331.314468,0,0,331.314468,1462.241556,614.588338)"><path d="M0.212,-0l-0.223,-0.542l0.195,0l0.178,0.454l-0.098,0l0.187,-0.454l0.181,0l-0.223,0.542l-0.196,-0Z" style="fill:#fff;fill-rule:nonzero;"/></g><g transform="matrix(331.314468,0,0,331.314468,1667.656526,614.588338)"><path d="M0.061,-0l0,-0.542l0.19,0l0,0.542l-0.19,-0Zm0.095,-0.602c-0.035,0 -0.063,-0.01 -0.084,-0.029c-0.021,-0.019 -0.032,-0.043 -0.032,-0.072c0,-0.029 0.011,-0.052 0.032,-0.072c0.021,-0.019 0.049,-0.029 0.084,-0.029c0.035,0 0.063,0.009 0.084,0.027c0.021,0.018 0.032,0.042 0.032,0.07c0,0.03 -0.011,0.055 -0.032,0.075c-0.021,0.02 -0.049,0.029 -0.084,0.029Z" style="fill:#fff;fill-rule:nonzero;"/></g><g transform="matrix(331.314468,0,0,331.314468,1771.357955,614.588338)"><path d="M0.297,0.009c-0.049,0 -0.093,-0.011 -0.134,-0.034c-0.041,-0.023 -0.073,-0.055 -0.097,-0.097c-0.024,-0.042 -0.036,-0.091 -0.036,-0.149c-0,-0.057 0.012,-0.107 0.036,-0.149c0.024,-0.042 0.056,-0.074 0.097,-0.097c0.041,-0.023 0.085,-0.034 0.134,-0.034c0.047,0 0.086,0.01 0.119,0.03c0.032,0.02 0.057,0.051 0.074,0.092c0.017,0.041 0.025,0.094 0.025,0.157c0,0.064 -0.008,0.117 -0.024,0.158c-0.016,0.041 -0.04,0.072 -0.072,0.092c-0.032,0.02 -0.073,0.03 -0.122,0.03Zm0.04,-0.151c0.021,0 0.041,-0.005 0.058,-0.015c0.017,-0.01 0.031,-0.025 0.041,-0.044c0.01,-0.02 0.015,-0.043 0.015,-0.07c0,-0.028 -0.005,-0.051 -0.015,-0.07c-0.01,-0.019 -0.024,-0.033 -0.041,-0.043c-0.017,-0.01 -0.036,-0.015 -0.058,-0.015c-0.021,0 -0.041,0.005 -0.058,0.015c-0.017,0.01 -0.031,0.024 -0.041,0.043c-0.01,0.019 -0.015,0.042 -0.015,0.07c0,0.027 0.005,0.05 0.015,0.07c0.01,0.02 0.024,0.034 0.041,0.044c0.017,0.01 0.036,0.015 0.058,0.015Zm0.12,0.142l0,-0.093l0.001,-0.179l-0.01,-0.179l0,-0.291l0.19,0l0,0.742l-0.181,-0Z" style="fill:#fff;fill-rule:nonzero;"/></g><g transform="matrix(331.314468,0,0,331.314468,2002.615454,614.588338)"><path d="M0.345,0.009c-0.064,0 -0.12,-0.012 -0.168,-0.036c-0.048,-0.024 -0.085,-0.058 -0.111,-0.1c-0.026,-0.042 -0.039,-0.09 -0.039,-0.144c0,-0.055 0.013,-0.103 0.039,-0.145c0.026,-0.042 0.061,-0.075 0.106,-0.099c0.045,-0.024 0.096,-0.036 0.153,-0.036c0.053,0 0.102,0.011 0.146,0.033c0.044,0.022 0.079,0.054 0.105,0.095c0.026,0.042 0.039,0.093 0.039,0.153c0,0.007 -0,0.015 -0.001,0.023c-0.001,0.009 -0.001,0.017 -0.002,0.024l-0.429,0l0,-0.1l0.329,0l-0.072,0.028c0,-0.025 -0.005,-0.046 -0.014,-0.064c-0.01,-0.018 -0.023,-0.032 -0.04,-0.042c-0.017,-0.01 -0.037,-0.015 -0.059,-0.015c-0.023,0 -0.043,0.005 -0.06,0.015c-0.017,0.01 -0.03,0.024 -0.04,0.042c-0.009,0.018 -0.014,0.04 -0.014,0.065l0,0.029c0,0.026 0.006,0.049 0.017,0.069c0.011,0.019 0.027,0.034 0.048,0.044c0.021,0.01 0.045,0.015 0.074,0.015c0.027,0 0.05,-0.004 0.069,-0.012c0.019,-0.008 0.038,-0.019 0.056,-0.035l0.1,0.104c-0.026,0.028 -0.058,0.05 -0.096,0.065c-0.038,0.015 -0.083,0.022 -0.135,0.022Z" style="fill:#fff;fill-rule:nonzero;"/></g><g transform="matrix(331.314468,0,0,331.314468,2215.319342,614.588338)"><path d="M0.061,-0l0,-0.542l0.181,0l0,0.154l-0.035,-0.045c0.02,-0.039 0.048,-0.068 0.085,-0.088c0.036,-0.02 0.077,-0.03 0.122,-0.03c0.042,0 0.081,0.008 0.114,0.025c0.034,0.017 0.06,0.043 0.08,0.079c0.02,0.035 0.029,0.081 0.029,0.137l0,0.31l-0.19,-0l0,-0.279c0,-0.039 -0.008,-0.067 -0.023,-0.084c-0.016,-0.018 -0.037,-0.026 -0.065,-0.026c-0.02,0 -0.039,0.004 -0.055,0.013c-0.016,0.009 -0.029,0.022 -0.039,0.041c-0.009,0.019 -0.014,0.043 -0.014,0.074l0,0.262l-0.19,-0Z" style="fill:#fff;fill-rule:nonzero;"/></g><g transform="matrix(331.314468,0,0,331.314468,2448.452004,614.588338)"><path d="M0.338,0.009c-0.06,0 -0.114,-0.012 -0.161,-0.036c-0.047,-0.024 -0.084,-0.057 -0.11,-0.099c-0.027,-0.042 -0.04,-0.091 -0.04,-0.145c0,-0.055 0.013,-0.103 0.04,-0.145c0.027,-0.042 0.063,-0.075 0.11,-0.099c0.047,-0.024 0.1,-0.036 0.161,-0.036c0.061,0 0.115,0.013 0.159,0.039c0.045,0.026 0.076,0.063 0.095,0.11l-0.147,0.075c-0.013,-0.025 -0.029,-0.044 -0.048,-0.055c-0.019,-0.012 -0.039,-0.017 -0.061,-0.017c-0.022,0 -0.041,0.005 -0.059,0.015c-0.018,0.01 -0.032,0.024 -0.043,0.043c-0.01,0.019 -0.016,0.042 -0.016,0.07c0,0.028 0.005,0.051 0.016,0.07c0.01,0.019 0.025,0.034 0.043,0.044c0.018,0.01 0.038,0.015 0.059,0.015c0.022,0 0.042,-0.006 0.061,-0.017c0.019,-0.012 0.035,-0.03 0.048,-0.056l0.147,0.075c-0.019,0.047 -0.051,0.083 -0.095,0.11c-0.045,0.026 -0.098,0.039 -0.159,0.039Z" style="fill:#fff;fill-rule:nonzero;"/></g><g transform="matrix(331.314468,0,0,331.314468,2646.059378,614.588338)"><path d="M0.345,0.009c-0.064,0 -0.12,-0.012 -0.168,-0.036c-0.048,-0.024 -0.085,-0.058 -0.111,-0.1c-0.026,-0.042 -0.039,-0.09 -0.039,-0.144c0,-0.055 0.013,-0.103 0.039,-0.145c0.026,-0.042 0.061,-0.075 0.106,-0.099c0.045,-0.024 0.096,-0.036 0.153,-0.036c0.053,0 0.102,0.011 0.146,0.033c0.044,0.022 0.079,0.054 0.105,0.095c0.026,0.042 0.039,0.093 0.039,0.153c0,0.007 -0,0.015 -0.001,0.023c-0.001,0.009 -0.001,0.017 -0.002,0.024l-0.429,0l0,-0.1l0.329,0l-0.072,0.028c0,-0.025 -0.005,-0.046 -0.014,-0.064c-0.01,-0.018 -0.023,-0.032 -0.04,-0.042c-0.017,-0.01 -0.037,-0.015 -0.059,-0.015c-0.023,0 -0.043,0.005 -0.06,0.015c-0.017,0.01 -0.03,0.024 -0.04,0.042c-0.009,0.018 -0.014,0.04 -0.014,0.065l0,0.029c0,0.026 0.006,0.049 0.017,0.069c0.011,0.019 0.027,0.034 0.048,0.044c0.021,0.01 0.045,0.015 0.074,0.015c0.027,0 0.05,-0.004 0.069,-0.012c0.019,-0.008 0.038,-0.019 0.056,-0.035l0.1,0.104c-0.026,0.028 -0.058,0.05 -0.096,0.065c-0.038,0.015 -0.083,0.022 -0.135,0.022Z" style="fill:#fff;fill-rule:nonzero;"/></g><g transform="matrix(331.314468,0,0,331.314468,2858.763267,614.588338)"></g></g><g transform="matrix(0.913866,0,0,1,74.111905,0)"><g transform="matrix(331.314468,0,0,331.314468,860.423674,958.501101)"><path d="M0.316,0.014c-0.057,0 -0.112,-0.007 -0.165,-0.021c-0.053,-0.014 -0.096,-0.033 -0.129,-0.055l0.065,-0.147c0.031,0.02 0.068,0.037 0.109,0.05c0.041,0.013 0.082,0.019 0.122,0.019c0.028,0 0.05,-0.002 0.066,-0.007c0.016,-0.005 0.028,-0.011 0.036,-0.02c0.008,-0.009 0.011,-0.019 0.011,-0.03c-0,-0.016 -0.007,-0.028 -0.022,-0.038c-0.014,-0.009 -0.033,-0.017 -0.057,-0.023c-0.024,-0.006 -0.049,-0.012 -0.078,-0.018c-0.028,-0.006 -0.056,-0.014 -0.085,-0.023c-0.028,-0.009 -0.054,-0.021 -0.078,-0.036c-0.024,-0.015 -0.042,-0.035 -0.057,-0.059c-0.014,-0.025 -0.022,-0.056 -0.022,-0.093c0,-0.041 0.011,-0.079 0.034,-0.114c0.023,-0.034 0.057,-0.062 0.103,-0.082c0.046,-0.021 0.103,-0.031 0.173,-0.031c0.045,0 0.09,0.005 0.135,0.015c0.044,0.01 0.084,0.026 0.118,0.046l-0.06,0.146c-0.033,-0.018 -0.066,-0.031 -0.099,-0.04c-0.033,-0.009 -0.064,-0.013 -0.095,-0.013c-0.027,0 -0.049,0.003 -0.066,0.008c-0.017,0.006 -0.029,0.013 -0.036,0.023c-0.007,0.009 -0.011,0.02 -0.011,0.031c0,0.015 0.007,0.028 0.022,0.037c0.014,0.009 0.033,0.016 0.057,0.022c0.024,0.006 0.049,0.011 0.078,0.017c0.028,0.006 0.057,0.013 0.085,0.022c0.028,0.009 0.054,0.021 0.078,0.036c0.024,0.015 0.042,0.035 0.057,0.059c0.014,0.024 0.022,0.055 0.022,0.092c0,0.041 -0.011,0.078 -0.034,0.113c-0.023,0.034 -0.057,0.062 -0.103,0.082c-0.046,0.021 -0.104,0.031 -0.173,0.031Z" style="fill:#fff;fill-rule:nonzero;"/></g><g transform="matrix(331.314468,0,0,331.314468,1074.784135,958.501101)"><path d="M0.303,0.009c-0.069,0 -0.123,-0.017 -0.162,-0.051c-0.038,-0.034 -0.058,-0.086 -0.058,-0.156l0,-0.465l0.19,0l0,0.463c0,0.02 0.005,0.035 0.016,0.046c0.01,0.011 0.024,0.016 0.041,0.016c0.022,0 0.041,-0.006 0.058,-0.017l0.047,0.133c-0.017,0.011 -0.036,0.018 -0.06,0.024c-0.023,0.005 -0.048,0.008 -0.073,0.008Zm-0.299,-0.409l0,-0.142l0.393,0l0,0.142l-0.393,0Z" style="fill:#fff;fill-rule:nonzero;"/></g><g transform="matrix(331.314468,0,0,331.314468,1222.881702,958.501101)"><path d="M0.289,0.009c-0.044,0 -0.084,-0.009 -0.119,-0.026c-0.035,-0.017 -0.062,-0.044 -0.082,-0.081c-0.02,-0.037 -0.03,-0.084 -0.03,-0.141l0,-0.303l0.19,0l0,0.272c0,0.042 0.008,0.072 0.024,0.09c0.016,0.018 0.038,0.027 0.067,0.027c0.019,0 0.036,-0.004 0.051,-0.013c0.015,-0.009 0.027,-0.023 0.037,-0.042c0.009,-0.019 0.014,-0.043 0.014,-0.073l0,-0.262l0.19,0l0,0.542l-0.181,-0l0,-0.153l0.035,0.043c-0.019,0.04 -0.046,0.069 -0.081,0.089c-0.035,0.02 -0.074,0.029 -0.115,0.029Z" style="fill:#fff;fill-rule:nonzero;"/></g><g transform="matrix(331.314468,0,0,331.314468,1452.151314,958.501101)"><path d="M0.297,0.009c-0.049,0 -0.093,-0.011 -0.134,-0.034c-0.041,-0.023 -0.073,-0.055 -0.097,-0.097c-0.024,-0.042 -0.036,-0.091 -0.036,-0.149c-0,-0.057 0.012,-0.107 0.036,-0.149c0.024,-0.042 0.056,-0.074 0.097,-0.097c0.041,-0.023 0.085,-0.034 0.134,-0.034c0.047,0 0.086,0.01 0.119,0.03c0.032,0.02 0.057,0.051 0.074,0.092c0.017,0.041 0.025,0.094 0.025,0.157c0,0.064 -0.008,0.117 -0.024,0.158c-0.016,0.041 -0.04,0.072 -0.072,0.092c-0.032,0.02 -0.073,0.03 -0.122,0.03Zm0.04,-0.151c0.021,0 0.041,-0.005 0.058,-0.015c0.017,-0.01 0.031,-0.025 0.041,-0.044c0.01,-0.02 0.015,-0.043 0.015,-0.07c0,-0.028 -0.005,-0.051 -0.015,-0.07c-0.01,-0.019 -0.024,-0.033 -0.041,-0.043c-0.017,-0.01 -0.036,-0.015 -0.058,-0.015c-0.021,0 -0.041,0.005 -0.058,0.015c-0.017,0.01 -0.031,0.024 -0.041,0.043c-0.01,0.019 -0.015,0.042 -0.015,0.07c0,0.027 0.005,0.05 0.015,0.07c0.01,0.02 0.024,0.034 0.041,0.044c0.017,0.01 0.036,0.015 0.058,0.015Zm0.12,0.142l0,-0.093l0.001,-0.179l-0.01,-0.179l0,-0.291l0.19,0l0,0.742l-0.181,-0Z" style="fill:#fff;fill-rule:nonzero;"/></g><g transform="matrix(331.314468,0,0,331.314468,1683.408813,958.501101)"><path d="M0.061,-0l0,-0.542l0.19,0l0,0.542l-0.19,-0Zm0.095,-0.602c-0.035,0 -0.063,-0.01 -0.084,-0.029c-0.021,-0.019 -0.032,-0.043 -0.032,-0.072c0,-0.029 0.011,-0.052 0.032,-0.072c0.021,-0.019 0.049,-0.029 0.084,-0.029c0.035,0 0.063,0.009 0.084,0.027c0.021,0.018 0.032,0.042 0.032,0.07c0,0.03 -0.011,0.055 -0.032,0.075c-0.021,0.02 -0.049,0.029 -0.084,0.029Z" style="fill:#fff;fill-rule:nonzero;"/></g><g transform="matrix(331.314468,0,0,331.314468,1787.110241,958.501101)"><path d="M0.333,0.009c-0.059,0 -0.112,-0.012 -0.158,-0.036c-0.046,-0.024 -0.082,-0.057 -0.109,-0.099c-0.026,-0.042 -0.04,-0.091 -0.04,-0.145c0,-0.055 0.013,-0.103 0.04,-0.145c0.026,-0.042 0.063,-0.075 0.108,-0.099c0.046,-0.024 0.099,-0.036 0.158,-0.036c0.06,0 0.112,0.012 0.159,0.036c0.046,0.024 0.082,0.057 0.108,0.099c0.026,0.042 0.039,0.09 0.039,0.145c0,0.055 -0.013,0.103 -0.039,0.145c-0.026,0.042 -0.062,0.075 -0.109,0.099c-0.046,0.024 -0.099,0.036 -0.159,0.036Zm0,-0.151c0.022,0 0.041,-0.005 0.058,-0.015c0.017,-0.01 0.031,-0.025 0.041,-0.044c0.01,-0.02 0.015,-0.043 0.015,-0.07c-0,-0.028 -0.005,-0.051 -0.015,-0.07c-0.01,-0.019 -0.024,-0.033 -0.041,-0.043c-0.017,-0.01 -0.036,-0.015 -0.058,-0.015c-0.022,0 -0.041,0.005 -0.058,0.015c-0.017,0.01 -0.031,0.024 -0.041,0.043c-0.01,0.019 -0.015,0.042 -0.015,0.07c0,0.027 0.005,0.05 0.015,0.07c0.01,0.02 0.024,0.034 0.041,0.044c0.017,0.01 0.036,0.015 0.058,0.015Z" style="fill:#fff;fill-rule:nonzero;"/></g><g transform="matrix(331.314468,0,0,331.314468,1993.264009,958.501101)"><path d="M0.243,-0l-0.227,-0.7l0.204,0l0.19,0.606l-0.102,0l0.2,-0.606l0.183,-0l0.19,0.606l-0.098,0l0.197,-0.606l0.188,-0l-0.227,0.7l-0.212,-0l-0.162,-0.515l0.057,0l-0.168,0.515l-0.212,-0Z" style="fill:#fff;fill-rule:nonzero;"/></g><g transform="matrix(331.314468,0,0,331.314468,2365.600545,958.501101)"><path d="M0.345,0.009c-0.064,0 -0.12,-0.012 -0.168,-0.036c-0.048,-0.024 -0.085,-0.058 -0.111,-0.1c-0.026,-0.042 -0.039,-0.09 -0.039,-0.144c0,-0.055 0.013,-0.103 0.039,-0.145c0.026,-0.042 0.061,-0.075 0.106,-0.099c0.045,-0.024 0.096,-0.036 0.153,-0.036c0.053,0 0.102,0.011 0.146,0.033c0.044,0.022 0.079,0.054 0.105,0.095c0.026,0.042 0.039,0.093 0.039,0.153c0,0.007 -0,0.015 -0.001,0.023c-0.001,0.009 -0.001,0.017 -0.002,0.024l-0.429,0l0,-0.1l0.329,0l-0.072,0.028c0,-0.025 -0.005,-0.046 -0.014,-0.064c-0.01,-0.018 -0.023,-0.032 -0.04,-0.042c-0.017,-0.01 -0.037,-0.015 -0.059,-0.015c-0.023,0 -0.043,0.005 -0.06,0.015c-0.017,0.01 -0.03,0.024 -0.04,0.042c-0.009,0.018 -0.014,0.04 -0.014,0.065l0,0.029c0,0.026 0.006,0.049 0.017,0.069c0.011,0.019 0.027,0.034 0.048,0.044c0.021,0.01 0.045,0.015 0.074,0.015c0.027,0 0.05,-0.004 0.069,-0.012c0.019,-0.008 0.038,-0.019 0.056,-0.035l0.1,0.104c-0.026,0.028 -0.058,0.05 -0.096,0.065c-0.038,0.015 -0.083,0.022 -0.135,0.022Z" style="fill:#fff;fill-rule:nonzero;"/></g><g transform="matrix(331.314468,0,0,331.314468,2578.304434,958.501101)"><path d="M0.402,0.009c-0.048,0 -0.089,-0.01 -0.121,-0.03c-0.032,-0.02 -0.057,-0.051 -0.073,-0.092c-0.016,-0.041 -0.024,-0.094 -0.024,-0.158c0,-0.064 0.008,-0.116 0.025,-0.157c0.017,-0.041 0.042,-0.072 0.074,-0.092c0.033,-0.02 0.072,-0.03 0.118,-0.03c0.049,0 0.094,0.011 0.134,0.034c0.04,0.023 0.072,0.055 0.096,0.097c0.024,0.042 0.036,0.091 0.036,0.149c0,0.057 -0.012,0.107 -0.036,0.149c-0.024,0.042 -0.056,0.074 -0.096,0.097c-0.04,0.023 -0.085,0.034 -0.134,0.034Zm-0.34,-0.009l0,-0.742l0.19,0l0,0.291l-0.01,0.179l0.001,0.179l0,0.093l-0.181,-0Zm0.3,-0.142c0.021,0 0.041,-0.005 0.058,-0.015c0.017,-0.01 0.031,-0.025 0.041,-0.044c0.01,-0.02 0.015,-0.043 0.015,-0.07c-0,-0.028 -0.005,-0.051 -0.015,-0.07c-0.01,-0.019 -0.024,-0.033 -0.041,-0.043c-0.017,-0.01 -0.036,-0.015 -0.058,-0.015c-0.021,0 -0.041,0.005 -0.058,0.015c-0.017,0.01 -0.031,0.024 -0.041,0.043c-0.01,0.019 -0.015,0.042 -0.015,0.07c0,0.027 0.005,0.05 0.015,0.07c0.01,0.02 0.024,0.034 0.041,0.044c0.017,0.01 0.036,0.015 0.058,0.015Z" style="fill:#fff;fill-rule:nonzero;"/></g></g></g></g></svg>