<?xml version="1.0" encoding="UTF-8" standalone="no"?>
<!DOCTYPE svg PUBLIC "-//W3C//DTD SVG 1.1//EN" "http://www.w3.org/Graphics/SVG/1.1/DTD/svg11.dtd">
<svg width="100%" height="100%" viewBox="0 0 2105 912" version="1.1" xmlns="http://www.w3.org/2000/svg" xmlns:xlink="http://www.w3.org/1999/xlink" xml:space="preserve" xmlns:serif="http://www.serif.com/" style="fill-rule:evenodd;clip-rule:evenodd;stroke-linejoin:round;stroke-miterlimit:2;">
    <g id="extended" transform="matrix(1,0,0,1,-519.578859,-311.730976)">
        <g transform="matrix(0.958522,0.067407,0,0.971632,218.996272,246.088734)">
            <path d="M2400.158,725.05C2399.814,725.265 2262.119,830.629 2257.361,833.595L2236.076,840.565C2236.076,840.565 2245.023,841.282 2257.351,833.601C2237.064,846.242 2214.537,852.973 2189.588,852.973C2181.409,852.973 2173.711,852.258 2166.475,850.919L2065.809,850.919C2057.688,852.254 2049.064,852.973 2039.926,852.973C2016.908,852.973 1996.58,848.363 1978.721,839.85L1969.801,850.919L1728.722,850.919L1725.25,839.194C1706.801,848.088 1686.237,852.973 1663.389,852.973C1654.768,852.973 1646.494,852.279 1638.56,850.919L1462.378,850.918C1455.062,852.247 1447.283,852.973 1439.024,852.973C1431.141,852.973 1423.482,852.29 1416.049,850.919L1311.382,850.918C1304.171,852.276 1296.771,852.973 1289.177,852.973C1272.701,852.973 1257.613,850.065 1243.825,844.518C1239.064,846.357 1234.023,847.934 1228.684,849.209C1218.36,851.674 1207.612,852.973 1196.434,852.973C1171.497,852.973 1150.972,847.137 1134.235,836.921C1132.74,837.795 1131.351,838.559 1130.118,839.169L1130.115,839.17C1111.658,848.307 1088.602,854.16 1060.583,854.16C1041.725,854.16 1023.566,851.586 1006.093,846.48L1006.083,846.477C986.32,840.698 970.496,832.724 958.096,823.515L944.692,813.561L778.394,939.97L426.1,939.97L313.59,552.792L313.59,206.77L546.618,29.637L716.264,29.637C752.684,29.637 783.907,36.942 810.343,50.114C819.056,54.453 827.173,59.358 834.705,64.816C846.357,56.538 858.101,48.711 864.832,45.367C891.416,32.159 924.489,24.106 964.461,24.106C987.401,24.106 1010.063,26.943 1032.436,32.678C1056.832,38.93 1078.473,48.474 1097.51,61.005L1146.471,93.232L1106.576,200.627C1107.42,201.606 1108.251,202.599 1109.069,203.606L1117.29,197.357L1229.026,197.357C1254.191,197.357 1275.733,202.447 1294,211.392C1306.416,217.47 1317.135,225.131 1326.219,234.305L1369.187,234.306C1376.698,232.971 1384.627,232.251 1392.987,232.251L1457.722,232.251L1457.722,232.513C1460.714,232.339 1463.748,232.251 1466.826,232.251C1475.443,232.251 1483.715,232.95 1491.649,234.305L1586.545,234.305C1603.993,221.107 1625.656,204.833 1632.858,199.405C1650.439,183.022 1672.689,173.072 1700.803,173.072C1727.077,173.072 1747.671,181.799 1763.663,196.773C1765.366,198.368 1766.992,200.005 1768.537,201.685L1785.913,187.514L1935.59,187.514L1935.59,233.331C1941.403,232.616 1947.366,232.251 1953.482,232.251C1961.806,232.251 1969.858,232.94 1977.643,234.305L2087.155,234.306C2094.512,232.957 2102.143,232.251 2110.055,232.251C2131.048,232.251 2149.824,237.088 2166.549,246.238C2168.955,247.554 2171.301,248.96 2173.587,250.456C2173.865,250.298 2174.145,250.142 2174.426,249.986C2194.915,238.611 2218.179,232.251 2244.469,232.251C2268.033,232.251 2288.627,237.452 2306.521,247.071C2325.41,237.458 2346.324,232.251 2369.424,232.251C2392.54,232.251 2413.562,237.565 2432.578,247.921C2452.111,258.558 2467.885,273.849 2479.5,294.189C2490.157,312.852 2496.298,335.322 2496.298,362.084C2496.298,364.923 2496.206,368.103 2495.996,371.624C2495.839,374.274 2495.664,376.702 2495.477,378.906L2495.27,381.338L2493.715,389.132L2509.306,406.891L2470.853,453.224C2467.634,457.103 2441.488,478.006 2414.507,499.095C2428.537,509.567 2440.162,523.164 2449.024,540.208C2458.522,558.475 2463.894,579.976 2463.894,605.064C2463.894,631.244 2458.002,653.72 2448.09,672.782C2436.308,695.439 2420.074,712.635 2400.158,725.05Z" style="fill:white;"/>
        </g>
        <g transform="matrix(0.958522,0.067407,0,0.971632,218.996272,246.088734)">
            <path d="M982.44,693.743L967.952,743.53L766.078,896.981L634.057,896.981L625.378,866.291L591.534,896.981L459.672,896.981L357.059,543.866L357.059,226.078L558.933,72.626L713.214,72.626C742.396,72.626 767.485,78.234 788.666,88.789C804.994,96.92 818.615,107.61 829.572,120.815C835.476,115.38 869.461,89.802 882.113,83.517C903.253,73.013 929.625,67.095 961.412,67.095C980.783,67.095 999.917,69.503 1018.809,74.345C1038.63,79.425 1056.24,87.126 1071.708,97.307L1094.209,112.118L1056.134,214.617C1068.254,223.417 1078.148,234.808 1085.652,248.934C1088.727,254.72 1091.258,261.082 1093.173,268.04L1129.606,240.346L1225.977,240.346C1243.999,240.346 1259.487,243.782 1272.569,250.188C1285.73,256.63 1296.073,265.695 1303.678,277.294L1370.477,277.294C1376.53,275.947 1383.013,275.24 1389.938,275.24L1414.252,275.24L1414.252,288.447C1414.927,288.042 1415.609,287.644 1416.298,287.253C1430.09,279.427 1445.882,275.24 1463.776,275.24C1472.889,275.24 1481.455,276.321 1489.488,278.446L1489.055,277.294L1588.235,277.294L1590.494,283.598C1593.826,280.584 1659.51,231.606 1659.988,231.131L1659.99,231.129C1669.583,221.594 1682,216.061 1697.754,216.061C1712.291,216.061 1723.783,220.67 1732.63,228.955C1742.068,237.791 1746.942,249.064 1746.942,262.92C1746.942,266.77 1746.586,270.435 1745.893,273.921L1799.131,230.503L1892.12,230.503L1892.12,295.467C1895.799,292.488 1899.743,289.786 1903.951,287.359C1917.711,279.419 1933.177,275.24 1950.433,275.24C1966.253,275.24 1980.654,278.835 1993.667,285.923C1994.972,286.633 1996.252,287.375 1997.506,288.149L2003.554,288.149L2003.554,277.294L2088.607,277.294C2094.459,275.935 2100.59,275.24 2107.006,275.24C2120.563,275.24 2132.711,278.293 2143.511,284.202C2152.837,289.304 2160.673,296.606 2166.792,306.317C2169.56,304.133 2172.477,302.096 2175.544,300.206C2180.914,295.198 2186.942,290.837 2193.629,287.126C2207.597,279.37 2223.496,275.24 2241.419,275.24C2259.788,275.24 2275.564,279.708 2288.901,288.2C2294.165,291.552 2298.864,295.41 2302.993,299.782L2303.375,299.546C2308.332,294.911 2313.84,290.85 2319.893,287.359C2333.652,279.419 2349.119,275.24 2366.374,275.24C2382.195,275.24 2396.595,278.835 2409.609,285.923C2422.818,293.116 2433.426,303.516 2441.281,317.271C2448.776,330.396 2452.828,346.279 2452.828,365.1C2452.828,367.186 2452.756,369.522 2452.602,372.108C2452.468,374.365 2452.32,376.433 2452.161,378.312L2447.071,403.813L2452.48,409.975L2438.037,427.378C2432.04,434.604 2336.549,507.446 2331.366,510.551L2331.188,510.72L2331.188,518.874C2333.757,518.632 2336.396,518.509 2339.104,518.509C2354.513,518.509 2368.474,522.396 2381.004,530.125C2393.128,537.604 2402.893,548.138 2410.066,561.937C2416.816,574.916 2420.424,590.253 2420.424,608.08C2420.424,626.316 2416.62,642.02 2409.716,655.297C2402.109,669.926 2391.732,681.12 2378.873,689.136L2378.871,689.138C2378.526,689.352 2240.834,794.715 2236.076,797.681L2236.074,797.683C2223.077,805.781 2208.621,809.984 2192.638,809.984C2185.921,809.984 2179.693,809.281 2173.934,807.93L2095.402,807.93L2095.402,795.711C2091.405,798.301 2087.142,800.568 2082.61,802.509L2082.608,802.51C2071.404,807.308 2058.215,809.984 2042.975,809.984C2024.613,809.984 2008.633,805.982 1994.911,798.365L1994.909,798.364C1988.659,794.893 1983.035,790.844 1978.033,786.221L1968.286,786.221L1950.792,807.93L1866.068,807.93L1861.998,793.782L1846.734,807.93L1762.137,807.93L1751.117,770.711C1749.315,772.01 1747.453,773.25 1745.532,774.433C1741.203,778.473 1736.443,782.091 1731.252,785.288C1726.116,790.08 1720.374,794.279 1714.026,797.885L1714.024,797.886C1700.118,805.783 1684.288,809.984 1666.438,809.984C1649.026,809.984 1633.631,805.998 1620.162,798.295L1620.159,798.294C1619.463,797.895 1618.775,797.489 1618.094,797.075L1609.904,797.075L1609.904,807.93L1460.966,807.93C1455.152,809.271 1448.86,809.984 1442.073,809.984C1426.854,809.984 1412.913,806.095 1400.262,798.277L1400.26,798.276C1399.626,797.884 1398.998,797.484 1398.378,797.075L1393.406,807.93L1309.787,807.93C1304.127,809.296 1298.274,809.984 1292.227,809.984C1278.297,809.984 1265.863,806.877 1254.852,800.886L1254.85,800.884C1251.971,799.316 1249.234,797.543 1246.646,795.558L1243.832,797.538C1237.591,801.928 1230.135,805.352 1221.328,807.454C1214.335,809.124 1207.055,809.984 1199.484,809.984C1177.152,809.984 1160.102,803.221 1147.702,791.181L1147.699,791.178C1144.955,788.512 1142.46,785.56 1140.241,782.312C1138.388,783.647 1121.275,796.841 1112.894,800.99C1099.835,807.455 1083.458,811.171 1063.632,811.171C1048.897,811.171 1034.706,809.168 1021.053,805.178L1021.051,805.178C1006.539,800.934 994.827,795.251 985.721,788.489L970.798,777.406L995.673,716.149C992.113,712.265 989,707.863 986.355,702.928L986.353,702.923C984.836,700.09 983.524,697.032 982.44,693.743ZM1020.004,564.661L1005.706,613.795C1027.63,594.665 1064.634,566.021 1066.431,564.661L1020.004,564.661Z"/>
        </g>
        <g id="inner_short" transform="matrix(0.958522,0.067407,0,0.971632,218.996272,246.088734)">
            <path d="M394.026,542.635L394.026,262.635L508.747,262.635C531.774,262.635 551.645,266.8 568.359,275.129C585.076,283.454 597.975,295.385 607.054,310.923C616.137,326.456 620.678,344.856 620.678,366.123C620.678,387.31 616.137,405.627 607.054,421.073C597.975,436.515 585.076,448.446 568.359,456.867C551.645,465.283 531.774,469.492 508.747,469.492L433.507,469.492L465.213,434.923L465.213,542.635L394.026,542.635ZM465.213,443.585L433.507,406.992L504.582,406.992C519.443,406.992 530.541,403.377 537.876,396.148C545.215,388.915 548.885,378.906 548.885,366.123C548.885,353.26 545.215,343.215 537.876,335.985C530.541,328.752 519.443,325.135 504.582,325.135L433.507,325.135L465.213,288.542L465.213,443.585Z" style="fill:rgb(0,160,244);fill-rule:nonzero;"/>
            <path d="M746.896,548.167C726.339,548.167 706.538,545.335 687.492,539.673C668.447,534.006 652.95,526.658 641,517.629L664.398,459.004C675.707,467.154 688.746,473.769 703.514,478.848C718.282,483.927 732.907,486.467 747.39,486.467C757.319,486.467 765.231,485.517 771.125,483.617C777.023,481.712 781.348,479.048 784.098,475.623C786.849,472.198 788.224,468.223 788.224,463.698C788.224,457.39 785.635,452.377 780.455,448.66C775.279,444.94 768.466,441.873 760.016,439.46C751.565,437.044 742.282,434.64 732.166,432.248C722.05,429.856 711.891,426.815 701.689,423.123C691.491,419.431 682.167,414.581 673.716,408.573C665.266,402.565 658.451,394.644 653.271,384.81C648.096,374.973 645.508,362.587 645.508,347.654C645.508,331.067 649.619,315.929 657.841,302.242C666.063,288.554 678.428,277.61 694.936,269.41C711.448,261.206 732.117,257.104 756.945,257.104C773.281,257.104 789.414,259.146 805.346,263.229C821.278,267.312 835.46,273.446 847.892,281.629L826.173,340.098C814.163,332.915 802.294,327.571 790.565,324.067C778.84,320.558 767.431,318.804 756.339,318.804C746.56,318.804 738.68,319.935 732.699,322.198C726.719,324.456 722.413,327.458 719.782,331.204C717.155,334.946 715.841,339.119 715.841,343.723C715.841,349.848 718.429,354.725 723.605,358.354C728.785,361.979 735.598,364.933 744.045,367.217C752.495,369.496 761.819,371.806 772.018,374.148C782.22,376.485 792.378,379.481 802.494,383.135C812.614,386.785 821.899,391.594 830.349,397.56C838.8,403.527 845.613,411.383 850.789,421.129C855.968,430.871 858.558,443.075 858.558,457.742C858.558,474.062 854.428,489.067 846.169,502.754C837.909,516.442 825.546,527.433 809.079,535.729C792.616,544.021 771.889,548.167 746.896,548.167Z" style="fill:rgb(255,196,9);fill-rule:nonzero;"/>
            <g transform="matrix(1,0,0,1,32.153343,-15.544995)">
                <path d="M456.057,875.969L374.574,595.969L447.945,595.969L516.314,838.325L479.511,838.325L551.501,595.969L617.086,595.969L685.191,838.325L649.841,838.325L720.647,595.969L788.303,595.969L706.82,875.969L630.643,875.969L572.389,669.956L592.806,669.956L532.347,875.969L456.057,875.969Z" style="fill:rgb(221,45,74);fill-rule:nonzero;"/>
            </g>
        </g>
        <g id="inner_long" transform="matrix(0.678018,0.047681,0,0.687291,592.114573,373.442848)">
            <g transform="matrix(0.913866,0,0,1,74.111905,0)">
                <g transform="matrix(331.314468,0,0,331.314468,860.423674,614.588338)">
                    <path d="M0.07,-0L0.07,-0.7L0.39,-0.7C0.454,-0.7 0.509,-0.69 0.556,-0.669C0.602,-0.648 0.638,-0.618 0.663,-0.579C0.689,-0.54 0.701,-0.494 0.701,-0.441C0.701,-0.388 0.689,-0.343 0.663,-0.304C0.638,-0.265 0.602,-0.235 0.556,-0.214C0.509,-0.193 0.454,-0.183 0.39,-0.183L0.18,-0.183L0.268,-0.269L0.268,-0L0.07,-0ZM0.268,-0.248L0.18,-0.339L0.378,-0.339C0.419,-0.339 0.45,-0.348 0.471,-0.366C0.491,-0.384 0.501,-0.409 0.501,-0.441C0.501,-0.473 0.491,-0.499 0.471,-0.517C0.45,-0.535 0.419,-0.544 0.378,-0.544L0.18,-0.544L0.268,-0.635L0.268,-0.248Z" style="fill:white;fill-rule:nonzero;"/>
                </g>
                <g transform="matrix(331.314468,0,0,331.314468,1102.789728,614.588338)">
                    <path d="M0.061,-0L0.061,-0.542L0.242,-0.542L0.242,-0.384L0.215,-0.429C0.231,-0.47 0.257,-0.5 0.293,-0.52C0.329,-0.541 0.373,-0.551 0.424,-0.551L0.424,-0.38C0.415,-0.381 0.408,-0.382 0.401,-0.383C0.395,-0.383 0.388,-0.383 0.381,-0.383C0.343,-0.383 0.311,-0.373 0.287,-0.352C0.263,-0.33 0.251,-0.296 0.251,-0.249L0.251,-0L0.061,-0Z" style="fill:white;fill-rule:nonzero;"/>
                </g>
                <g transform="matrix(331.314468,0,0,331.314468,1247.024246,614.588338)">
                    <path d="M0.333,0.009C0.274,0.009 0.221,-0.003 0.175,-0.027C0.129,-0.051 0.093,-0.084 0.067,-0.127C0.04,-0.169 0.027,-0.217 0.027,-0.272C0.027,-0.326 0.04,-0.375 0.067,-0.417C0.093,-0.459 0.129,-0.492 0.175,-0.515C0.221,-0.539 0.274,-0.551 0.333,-0.551C0.393,-0.551 0.445,-0.539 0.492,-0.515C0.538,-0.492 0.574,-0.459 0.6,-0.417C0.626,-0.375 0.639,-0.326 0.639,-0.272C0.639,-0.217 0.626,-0.169 0.6,-0.127C0.574,-0.084 0.538,-0.051 0.492,-0.027C0.445,-0.003 0.393,0.009 0.333,0.009ZM0.333,-0.142C0.355,-0.142 0.374,-0.147 0.391,-0.157C0.408,-0.167 0.422,-0.182 0.432,-0.202C0.442,-0.221 0.447,-0.244 0.447,-0.272C0.447,-0.299 0.442,-0.323 0.432,-0.342C0.422,-0.361 0.408,-0.375 0.391,-0.385C0.374,-0.395 0.355,-0.4 0.333,-0.4C0.312,-0.4 0.292,-0.395 0.275,-0.385C0.258,-0.375 0.245,-0.361 0.235,-0.342C0.224,-0.323 0.219,-0.299 0.219,-0.272C0.219,-0.244 0.224,-0.221 0.235,-0.202C0.245,-0.182 0.258,-0.167 0.275,-0.157C0.292,-0.147 0.312,-0.142 0.333,-0.142Z" style="fill:white;fill-rule:nonzero;"/>
                </g>
                <g transform="matrix(331.314468,0,0,331.314468,1462.241556,614.588338)">
                    <path d="M0.212,-0L-0.011,-0.542L0.184,-0.542L0.362,-0.089L0.264,-0.089L0.451,-0.542L0.632,-0.542L0.408,-0L0.212,-0Z" style="fill:white;fill-rule:nonzero;"/>
                </g>
                <g transform="matrix(331.314468,0,0,331.314468,1667.656526,614.588338)">
                    <path d="M0.061,-0L0.061,-0.542L0.251,-0.542L0.251,-0L0.061,-0ZM0.156,-0.602C0.121,-0.602 0.093,-0.612 0.072,-0.631C0.05,-0.65 0.04,-0.674 0.04,-0.703C0.04,-0.731 0.05,-0.755 0.072,-0.775C0.093,-0.794 0.121,-0.804 0.156,-0.804C0.191,-0.804 0.219,-0.795 0.24,-0.776C0.262,-0.758 0.272,-0.735 0.272,-0.706C0.272,-0.676 0.262,-0.651 0.24,-0.632C0.219,-0.612 0.191,-0.602 0.156,-0.602Z" style="fill:white;fill-rule:nonzero;"/>
                </g>
                <g transform="matrix(331.314468,0,0,331.314468,1771.357955,614.588338)">
                    <path d="M0.297,0.009C0.248,0.009 0.203,-0.003 0.163,-0.026C0.122,-0.048 0.09,-0.081 0.066,-0.123C0.042,-0.164 0.03,-0.214 0.03,-0.272C0.03,-0.329 0.042,-0.379 0.066,-0.42C0.09,-0.462 0.122,-0.494 0.163,-0.517C0.203,-0.54 0.248,-0.551 0.297,-0.551C0.343,-0.551 0.383,-0.541 0.415,-0.521C0.447,-0.501 0.472,-0.47 0.489,-0.429C0.506,-0.388 0.514,-0.335 0.514,-0.272C0.514,-0.207 0.506,-0.155 0.49,-0.113C0.474,-0.072 0.45,-0.041 0.418,-0.021C0.386,-0.001 0.346,0.009 0.297,0.009ZM0.337,-0.142C0.358,-0.142 0.377,-0.147 0.394,-0.157C0.411,-0.167 0.425,-0.182 0.435,-0.202C0.445,-0.221 0.45,-0.244 0.45,-0.272C0.45,-0.299 0.445,-0.323 0.435,-0.342C0.425,-0.361 0.411,-0.375 0.394,-0.385C0.377,-0.395 0.358,-0.4 0.337,-0.4C0.315,-0.4 0.296,-0.395 0.279,-0.385C0.262,-0.375 0.248,-0.361 0.238,-0.342C0.228,-0.323 0.223,-0.299 0.223,-0.272C0.223,-0.244 0.228,-0.221 0.238,-0.202C0.248,-0.182 0.262,-0.167 0.279,-0.157C0.296,-0.147 0.315,-0.142 0.337,-0.142ZM0.456,-0L0.456,-0.093L0.457,-0.272L0.447,-0.451L0.447,-0.742L0.637,-0.742L0.637,-0L0.456,-0Z" style="fill:white;fill-rule:nonzero;"/>
                </g>
                <g transform="matrix(331.314468,0,0,331.314468,2002.615454,614.588338)">
                    <path d="M0.345,0.009C0.281,0.009 0.225,-0.003 0.177,-0.028C0.13,-0.052 0.093,-0.085 0.066,-0.128C0.04,-0.17 0.027,-0.218 0.027,-0.272C0.027,-0.326 0.04,-0.374 0.066,-0.416C0.092,-0.459 0.127,-0.492 0.172,-0.515C0.217,-0.539 0.268,-0.551 0.325,-0.551C0.378,-0.551 0.427,-0.54 0.471,-0.518C0.515,-0.496 0.55,-0.465 0.576,-0.423C0.602,-0.381 0.615,-0.33 0.615,-0.27C0.615,-0.263 0.615,-0.256 0.614,-0.247C0.614,-0.238 0.613,-0.23 0.612,-0.223L0.183,-0.223L0.183,-0.323L0.511,-0.323L0.439,-0.295C0.439,-0.319 0.435,-0.341 0.425,-0.359C0.415,-0.377 0.402,-0.391 0.386,-0.401C0.369,-0.411 0.349,-0.416 0.326,-0.416C0.303,-0.416 0.283,-0.411 0.266,-0.401C0.249,-0.391 0.236,-0.377 0.227,-0.359C0.217,-0.341 0.213,-0.319 0.213,-0.294L0.213,-0.265C0.213,-0.238 0.218,-0.215 0.23,-0.196C0.241,-0.177 0.257,-0.162 0.277,-0.151C0.298,-0.141 0.323,-0.136 0.351,-0.136C0.378,-0.136 0.401,-0.14 0.42,-0.148C0.439,-0.155 0.458,-0.167 0.476,-0.183L0.576,-0.079C0.55,-0.05 0.518,-0.028 0.48,-0.014C0.442,0.001 0.397,0.009 0.345,0.009Z" style="fill:white;fill-rule:nonzero;"/>
                </g>
                <g transform="matrix(331.314468,0,0,331.314468,2215.319342,614.588338)">
                    <path d="M0.061,-0L0.061,-0.542L0.242,-0.542L0.242,-0.388L0.207,-0.433C0.227,-0.472 0.256,-0.502 0.292,-0.521C0.328,-0.541 0.369,-0.551 0.414,-0.551C0.456,-0.551 0.494,-0.543 0.528,-0.526C0.562,-0.509 0.589,-0.483 0.608,-0.447C0.628,-0.412 0.638,-0.366 0.638,-0.31L0.638,-0L0.448,-0L0.448,-0.279C0.448,-0.318 0.44,-0.346 0.424,-0.363C0.408,-0.381 0.387,-0.39 0.359,-0.39C0.339,-0.39 0.32,-0.385 0.304,-0.377C0.288,-0.368 0.275,-0.354 0.265,-0.335C0.256,-0.317 0.251,-0.292 0.251,-0.262L0.251,-0L0.061,-0Z" style="fill:white;fill-rule:nonzero;"/>
                </g>
                <g transform="matrix(331.314468,0,0,331.314468,2448.452004,614.588338)">
                    <path d="M0.338,0.009C0.278,0.009 0.224,-0.003 0.177,-0.027C0.13,-0.051 0.093,-0.084 0.067,-0.126C0.04,-0.169 0.027,-0.217 0.027,-0.272C0.027,-0.326 0.04,-0.375 0.067,-0.417C0.093,-0.459 0.13,-0.492 0.177,-0.515C0.224,-0.539 0.278,-0.551 0.338,-0.551C0.399,-0.551 0.452,-0.538 0.497,-0.512C0.542,-0.486 0.573,-0.45 0.592,-0.402L0.445,-0.327C0.432,-0.352 0.417,-0.371 0.398,-0.382C0.379,-0.394 0.359,-0.4 0.337,-0.4C0.315,-0.4 0.295,-0.395 0.277,-0.385C0.259,-0.375 0.245,-0.361 0.235,-0.342C0.224,-0.323 0.219,-0.299 0.219,-0.272C0.219,-0.244 0.224,-0.22 0.235,-0.201C0.245,-0.182 0.259,-0.167 0.277,-0.157C0.295,-0.147 0.315,-0.142 0.337,-0.142C0.359,-0.142 0.379,-0.148 0.398,-0.16C0.417,-0.171 0.432,-0.19 0.445,-0.215L0.592,-0.14C0.573,-0.093 0.542,-0.056 0.497,-0.03C0.452,-0.004 0.399,0.009 0.338,0.009Z" style="fill:white;fill-rule:nonzero;"/>
                </g>
                <g transform="matrix(331.314468,0,0,331.314468,2646.059378,614.588338)">
                    <path d="M0.345,0.009C0.281,0.009 0.225,-0.003 0.177,-0.028C0.13,-0.052 0.093,-0.085 0.066,-0.128C0.04,-0.17 0.027,-0.218 0.027,-0.272C0.027,-0.326 0.04,-0.374 0.066,-0.416C0.092,-0.459 0.127,-0.492 0.172,-0.515C0.217,-0.539 0.268,-0.551 0.325,-0.551C0.378,-0.551 0.427,-0.54 0.471,-0.518C0.515,-0.496 0.55,-0.465 0.576,-0.423C0.602,-0.381 0.615,-0.33 0.615,-0.27C0.615,-0.263 0.615,-0.256 0.614,-0.247C0.614,-0.238 0.613,-0.23 0.612,-0.223L0.183,-0.223L0.183,-0.323L0.511,-0.323L0.439,-0.295C0.439,-0.319 0.435,-0.341 0.425,-0.359C0.415,-0.377 0.402,-0.391 0.386,-0.401C0.369,-0.411 0.349,-0.416 0.326,-0.416C0.303,-0.416 0.283,-0.411 0.266,-0.401C0.249,-0.391 0.236,-0.377 0.227,-0.359C0.217,-0.341 0.213,-0.319 0.213,-0.294L0.213,-0.265C0.213,-0.238 0.218,-0.215 0.23,-0.196C0.241,-0.177 0.257,-0.162 0.277,-0.151C0.298,-0.141 0.323,-0.136 0.351,-0.136C0.378,-0.136 0.401,-0.14 0.42,-0.148C0.439,-0.155 0.458,-0.167 0.476,-0.183L0.576,-0.079C0.55,-0.05 0.518,-0.028 0.48,-0.014C0.442,0.001 0.397,0.009 0.345,0.009Z" style="fill:white;fill-rule:nonzero;"/>
                </g>
                <g transform="matrix(331.314468,0,0,331.314468,2858.763267,614.588338)">
                </g>
            </g>
            <g transform="matrix(0.913866,0,0,1,74.111905,0)">
                <g transform="matrix(331.314468,0,0,331.314468,860.423674,958.501101)">
                    <path d="M0.316,0.014C0.258,0.014 0.203,0.007 0.15,-0.007C0.097,-0.022 0.054,-0.04 0.021,-0.063L0.086,-0.209C0.117,-0.189 0.154,-0.172 0.195,-0.159C0.236,-0.147 0.277,-0.14 0.317,-0.14C0.345,-0.14 0.367,-0.143 0.383,-0.148C0.399,-0.152 0.411,-0.159 0.419,-0.168C0.427,-0.176 0.431,-0.186 0.431,-0.197C0.431,-0.213 0.423,-0.226 0.409,-0.235C0.395,-0.244 0.376,-0.252 0.352,-0.258C0.329,-0.264 0.303,-0.27 0.275,-0.276C0.246,-0.282 0.218,-0.29 0.19,-0.299C0.161,-0.308 0.135,-0.32 0.112,-0.335C0.088,-0.35 0.069,-0.37 0.055,-0.395C0.041,-0.419 0.033,-0.45 0.033,-0.487C0.033,-0.529 0.045,-0.567 0.068,-0.601C0.091,-0.635 0.125,-0.663 0.171,-0.683C0.217,-0.704 0.274,-0.714 0.343,-0.714C0.389,-0.714 0.434,-0.709 0.478,-0.699C0.523,-0.688 0.562,-0.673 0.597,-0.653L0.536,-0.506C0.503,-0.524 0.47,-0.538 0.437,-0.546C0.404,-0.555 0.373,-0.56 0.342,-0.56C0.315,-0.56 0.293,-0.557 0.276,-0.551C0.259,-0.545 0.247,-0.538 0.24,-0.529C0.233,-0.519 0.229,-0.509 0.229,-0.497C0.229,-0.482 0.236,-0.47 0.251,-0.461C0.265,-0.452 0.284,-0.444 0.308,-0.439C0.331,-0.433 0.357,-0.427 0.385,-0.421C0.414,-0.415 0.442,-0.408 0.47,-0.399C0.498,-0.39 0.524,-0.378 0.548,-0.363C0.571,-0.348 0.59,-0.328 0.605,-0.304C0.619,-0.279 0.626,-0.249 0.626,-0.212C0.626,-0.171 0.615,-0.134 0.592,-0.1C0.569,-0.065 0.534,-0.038 0.489,-0.017C0.443,0.003 0.385,0.014 0.316,0.014Z" style="fill:white;fill-rule:nonzero;"/>
                </g>
                <g transform="matrix(331.314468,0,0,331.314468,1074.784135,958.501101)">
                    <path d="M0.303,0.009C0.233,0.009 0.18,-0.008 0.141,-0.042C0.103,-0.077 0.083,-0.128 0.083,-0.198L0.083,-0.663L0.273,-0.663L0.273,-0.2C0.273,-0.181 0.279,-0.165 0.289,-0.154C0.299,-0.143 0.313,-0.138 0.33,-0.138C0.353,-0.138 0.372,-0.144 0.388,-0.155L0.435,-0.022C0.419,-0.012 0.399,-0.004 0.376,0.001C0.352,0.006 0.328,0.009 0.303,0.009ZM0.004,-0.401L0.004,-0.542L0.397,-0.542L0.397,-0.401L0.004,-0.401Z" style="fill:white;fill-rule:nonzero;"/>
                </g>
                <g transform="matrix(331.314468,0,0,331.314468,1222.881702,958.501101)">
                    <path d="M0.289,0.009C0.245,0.009 0.205,0 0.17,-0.017C0.135,-0.035 0.108,-0.062 0.088,-0.098C0.068,-0.135 0.059,-0.182 0.059,-0.239L0.059,-0.542L0.249,-0.542L0.249,-0.27C0.249,-0.228 0.257,-0.198 0.273,-0.18C0.288,-0.162 0.311,-0.153 0.339,-0.153C0.358,-0.153 0.375,-0.157 0.39,-0.166C0.406,-0.175 0.418,-0.188 0.427,-0.208C0.436,-0.227 0.441,-0.251 0.441,-0.281L0.441,-0.542L0.631,-0.542L0.631,-0L0.45,-0L0.45,-0.153L0.485,-0.11C0.466,-0.07 0.439,-0.04 0.404,-0.021C0.368,-0.001 0.33,0.009 0.289,0.009Z" style="fill:white;fill-rule:nonzero;"/>
                </g>
                <g transform="matrix(331.314468,0,0,331.314468,1452.151314,958.501101)">
                    <path d="M0.297,0.009C0.248,0.009 0.203,-0.003 0.163,-0.026C0.122,-0.048 0.09,-0.081 0.066,-0.123C0.042,-0.164 0.03,-0.214 0.03,-0.272C0.03,-0.329 0.042,-0.379 0.066,-0.42C0.09,-0.462 0.122,-0.494 0.163,-0.517C0.203,-0.54 0.248,-0.551 0.297,-0.551C0.343,-0.551 0.383,-0.541 0.415,-0.521C0.447,-0.501 0.472,-0.47 0.489,-0.429C0.506,-0.388 0.514,-0.335 0.514,-0.272C0.514,-0.207 0.506,-0.155 0.49,-0.113C0.474,-0.072 0.45,-0.041 0.418,-0.021C0.386,-0.001 0.346,0.009 0.297,0.009ZM0.337,-0.142C0.358,-0.142 0.377,-0.147 0.394,-0.157C0.411,-0.167 0.425,-0.182 0.435,-0.202C0.445,-0.221 0.45,-0.244 0.45,-0.272C0.45,-0.299 0.445,-0.323 0.435,-0.342C0.425,-0.361 0.411,-0.375 0.394,-0.385C0.377,-0.395 0.358,-0.4 0.337,-0.4C0.315,-0.4 0.296,-0.395 0.279,-0.385C0.262,-0.375 0.248,-0.361 0.238,-0.342C0.228,-0.323 0.223,-0.299 0.223,-0.272C0.223,-0.244 0.228,-0.221 0.238,-0.202C0.248,-0.182 0.262,-0.167 0.279,-0.157C0.296,-0.147 0.315,-0.142 0.337,-0.142ZM0.456,-0L0.456,-0.093L0.457,-0.272L0.447,-0.451L0.447,-0.742L0.637,-0.742L0.637,-0L0.456,-0Z" style="fill:white;fill-rule:nonzero;"/>
                </g>
                <g transform="matrix(331.314468,0,0,331.314468,1683.408813,958.501101)">
                    <path d="M0.061,-0L0.061,-0.542L0.251,-0.542L0.251,-0L0.061,-0ZM0.156,-0.602C0.121,-0.602 0.093,-0.612 0.072,-0.631C0.05,-0.65 0.04,-0.674 0.04,-0.703C0.04,-0.731 0.05,-0.755 0.072,-0.775C0.093,-0.794 0.121,-0.804 0.156,-0.804C0.191,-0.804 0.219,-0.795 0.24,-0.776C0.262,-0.758 0.272,-0.735 0.272,-0.706C0.272,-0.676 0.262,-0.651 0.24,-0.632C0.219,-0.612 0.191,-0.602 0.156,-0.602Z" style="fill:white;fill-rule:nonzero;"/>
                </g>
                <g transform="matrix(331.314468,0,0,331.314468,1787.110241,958.501101)">
                    <path d="M0.333,0.009C0.274,0.009 0.221,-0.003 0.175,-0.027C0.129,-0.051 0.093,-0.084 0.067,-0.127C0.04,-0.169 0.027,-0.217 0.027,-0.272C0.027,-0.326 0.04,-0.375 0.067,-0.417C0.093,-0.459 0.129,-0.492 0.175,-0.515C0.221,-0.539 0.274,-0.551 0.333,-0.551C0.393,-0.551 0.445,-0.539 0.492,-0.515C0.538,-0.492 0.574,-0.459 0.6,-0.417C0.626,-0.375 0.639,-0.326 0.639,-0.272C0.639,-0.217 0.626,-0.169 0.6,-0.127C0.574,-0.084 0.538,-0.051 0.492,-0.027C0.445,-0.003 0.393,0.009 0.333,0.009ZM0.333,-0.142C0.355,-0.142 0.374,-0.147 0.391,-0.157C0.408,-0.167 0.422,-0.182 0.432,-0.202C0.442,-0.221 0.447,-0.244 0.447,-0.272C0.447,-0.299 0.442,-0.323 0.432,-0.342C0.422,-0.361 0.408,-0.375 0.391,-0.385C0.374,-0.395 0.355,-0.4 0.333,-0.4C0.312,-0.4 0.292,-0.395 0.275,-0.385C0.258,-0.375 0.245,-0.361 0.235,-0.342C0.224,-0.323 0.219,-0.299 0.219,-0.272C0.219,-0.244 0.224,-0.221 0.235,-0.202C0.245,-0.182 0.258,-0.167 0.275,-0.157C0.292,-0.147 0.312,-0.142 0.333,-0.142Z" style="fill:white;fill-rule:nonzero;"/>
                </g>
                <g transform="matrix(331.314468,0,0,331.314468,1993.264009,958.501101)">
                    <path d="M0.243,-0L0.016,-0.7L0.22,-0.7L0.411,-0.094L0.308,-0.094L0.509,-0.7L0.691,-0.7L0.881,-0.094L0.782,-0.094L0.979,-0.7L1.168,-0.7L0.941,-0L0.729,-0L0.567,-0.515L0.624,-0.515L0.455,-0L0.243,-0Z" style="fill:white;fill-rule:nonzero;"/>
                </g>
                <g transform="matrix(331.314468,0,0,331.314468,2365.600545,958.501101)">
                    <path d="M0.345,0.009C0.281,0.009 0.225,-0.003 0.177,-0.028C0.13,-0.052 0.093,-0.085 0.066,-0.128C0.04,-0.17 0.027,-0.218 0.027,-0.272C0.027,-0.326 0.04,-0.374 0.066,-0.416C0.092,-0.459 0.127,-0.492 0.172,-0.515C0.217,-0.539 0.268,-0.551 0.325,-0.551C0.378,-0.551 0.427,-0.54 0.471,-0.518C0.515,-0.496 0.55,-0.465 0.576,-0.423C0.602,-0.381 0.615,-0.33 0.615,-0.27C0.615,-0.263 0.615,-0.256 0.614,-0.247C0.614,-0.238 0.613,-0.23 0.612,-0.223L0.183,-0.223L0.183,-0.323L0.511,-0.323L0.439,-0.295C0.439,-0.319 0.435,-0.341 0.425,-0.359C0.415,-0.377 0.402,-0.391 0.386,-0.401C0.369,-0.411 0.349,-0.416 0.326,-0.416C0.303,-0.416 0.283,-0.411 0.266,-0.401C0.249,-0.391 0.236,-0.377 0.227,-0.359C0.217,-0.341 0.213,-0.319 0.213,-0.294L0.213,-0.265C0.213,-0.238 0.218,-0.215 0.23,-0.196C0.241,-0.177 0.257,-0.162 0.277,-0.151C0.298,-0.141 0.323,-0.136 0.351,-0.136C0.378,-0.136 0.401,-0.14 0.42,-0.148C0.439,-0.155 0.458,-0.167 0.476,-0.183L0.576,-0.079C0.55,-0.05 0.518,-0.028 0.48,-0.014C0.442,0.001 0.397,0.009 0.345,0.009Z" style="fill:white;fill-rule:nonzero;"/>
                </g>
                <g transform="matrix(331.314468,0,0,331.314468,2578.304434,958.501101)">
                    <path d="M0.402,0.009C0.354,0.009 0.313,-0.001 0.281,-0.021C0.248,-0.041 0.224,-0.072 0.208,-0.113C0.192,-0.155 0.184,-0.207 0.184,-0.272C0.184,-0.335 0.193,-0.388 0.21,-0.429C0.226,-0.47 0.251,-0.501 0.284,-0.521C0.317,-0.541 0.356,-0.551 0.402,-0.551C0.451,-0.551 0.496,-0.54 0.536,-0.517C0.577,-0.494 0.609,-0.462 0.632,-0.42C0.656,-0.379 0.668,-0.329 0.668,-0.272C0.668,-0.214 0.656,-0.164 0.632,-0.123C0.609,-0.081 0.577,-0.048 0.536,-0.026C0.496,-0.003 0.451,0.009 0.402,0.009ZM0.061,-0L0.061,-0.742L0.251,-0.742L0.251,-0.451L0.241,-0.272L0.242,-0.093L0.242,-0L0.061,-0ZM0.362,-0.142C0.383,-0.142 0.403,-0.147 0.42,-0.157C0.437,-0.167 0.45,-0.182 0.46,-0.202C0.471,-0.221 0.476,-0.244 0.476,-0.272C0.476,-0.299 0.471,-0.323 0.46,-0.342C0.45,-0.361 0.437,-0.375 0.42,-0.385C0.403,-0.395 0.383,-0.4 0.362,-0.4C0.341,-0.4 0.321,-0.395 0.304,-0.385C0.287,-0.375 0.274,-0.361 0.263,-0.342C0.253,-0.323 0.248,-0.299 0.248,-0.272C0.248,-0.244 0.253,-0.221 0.263,-0.202C0.274,-0.182 0.287,-0.167 0.304,-0.157C0.321,-0.147 0.341,-0.142 0.362,-0.142Z" style="fill:white;fill-rule:nonzero;"/>
                </g>
            </g>
        </g>
    </g>
</svg>
