<?xml version="1.0" encoding="UTF-8" standalone="no"?>
<!DOCTYPE svg PUBLIC "-//W3C//DTD SVG 1.1//EN" "http://www.w3.org/Graphics/SVG/1.1/DTD/svg11.dtd">
<svg width="100%" height="100%" viewBox="0 0 1497 685" version="1.1" xmlns="http://www.w3.org/2000/svg" xmlns:xlink="http://www.w3.org/1999/xlink" xml:space="preserve" xmlns:serif="http://www.serif.com/" style="fill-rule:evenodd;clip-rule:evenodd;stroke-linejoin:round;stroke-miterlimit:2;">
    <g id="long" transform="matrix(0.707358,0,0,0.707358,-573.315151,-254.493686)">
        <g transform="matrix(0.958522,0.067407,0,0.971632,72.218955,144.193485)">
            <path d="M878.363,1032.041L878.352,1032.038C852.64,1024.519 832.012,1014.217 815.88,1002.236L770.231,968.336L808.675,873.666C807.683,871.994 806.721,870.287 805.789,868.548L805.777,868.524C796.38,850.971 790.526,829.196 790.526,802.55C790.526,773.11 798.372,746.332 813.219,722.04C816.148,717.248 824.027,707.855 836.018,696.955C837.182,695.898 838.395,694.807 839.654,693.688L801.738,693.688L801.738,327.004L1034.442,150.117L1185.887,150.117C1218.435,150.117 1246.321,156.611 1269.946,168.18C1287.962,176.999 1303.179,188.428 1315.702,202.351L1385.738,202.352C1395.784,200.462 1406.426,199.447 1417.681,199.447L1492.054,199.447L1492.054,201.73C1501.684,200.224 1511.685,199.447 1522.067,199.447C1533.72,199.447 1544.882,200.433 1555.566,202.351L1697.727,202.351C1723.264,183.028 1758.832,156.353 1769.124,148.593L1769.48,148.325C1790.969,128.024 1818.285,115.785 1852.844,115.785C1885.01,115.785 1910.265,126.376 1929.842,144.708C1936.162,150.625 1941.589,157.02 1946.099,163.903L1980.064,136.202L2167.622,136.202L2167.622,204.352C2181.078,201.121 2195.216,199.447 2210.059,199.447C2221.268,199.447 2232.093,200.421 2242.54,202.351L2400.798,202.352C2410.61,200.443 2420.81,199.447 2431.408,199.447C2457.933,199.447 2481.666,205.528 2502.797,217.09C2509.056,220.514 2514.991,224.42 2520.58,228.829C2524.221,226.451 2527.976,224.188 2531.847,222.039C2558.047,207.492 2587.813,199.447 2621.43,199.447C2655.255,199.447 2684.317,207.76 2709.054,223.109L2709.671,222.751C2735.857,207.642 2765.242,199.447 2798.081,199.447C2827.666,199.447 2854.577,206.231 2878.914,219.485C2903.846,233.062 2923.955,252.605 2938.78,278.567C2952.506,302.602 2960.302,331.574 2960.302,366.04C2960.302,369.735 2960.18,373.872 2959.907,378.454C2959.694,382.033 2959.459,385.313 2959.206,388.291L2957.241,411.434L2977.896,434.961L2943.289,464.057C2943.289,464.057 2879.898,517.084 2828.855,559.372C2832.74,561.33 2836.558,563.467 2840.31,565.781C2863.228,579.918 2881.822,599.709 2895.383,625.793C2907.645,649.375 2914.491,677.156 2914.491,709.544C2914.491,743.185 2907.047,772.088 2894.31,796.583C2879.425,825.209 2858.958,846.973 2833.797,862.659L2812.733,869.556C2812.733,869.556 2821.586,870.265 2833.785,862.666C2833.298,862.969 2638.649,1011.917 2631.923,1016.11L2610.859,1023.007C2610.859,1023.007 2619.713,1023.717 2631.911,1016.117C2606.323,1032.061 2577.9,1040.505 2546.432,1040.505C2535.442,1040.505 2525.135,1039.496 2515.485,1037.601L2369.864,1037.601C2358.919,1039.49 2347.255,1040.505 2334.853,1040.505C2301.228,1040.505 2272.039,1032.938 2246.913,1018.989L2246.904,1018.985C2245.625,1018.274 2244.361,1017.551 2243.111,1016.815L2226.361,1037.601L1907.779,1037.601L1900.346,1012.5C1897.704,1014.187 1895.001,1015.816 1892.238,1017.385L1872.831,1023.296C1872.831,1023.296 1880.786,1023.886 1892.227,1017.391C1865.999,1032.283 1836.202,1040.505 1802.538,1040.505C1790.74,1040.505 1779.448,1039.498 1768.649,1037.523L1768.649,1037.601L1516.625,1037.599C1506.868,1039.48 1496.452,1040.505 1485.351,1040.505C1472.005,1040.505 1459.168,1038.96 1446.843,1035.858L1446.044,1037.601L1303.095,1037.599C1293.504,1039.521 1283.644,1040.505 1273.511,1040.505C1249.962,1040.505 1228.644,1035.838 1209.412,1026.953C1201.494,1030.518 1192.9,1033.481 1183.578,1035.706C1170.396,1038.854 1156.672,1040.505 1142.399,1040.505C1106.227,1040.505 1077.347,1030.926 1054.668,1014.309C1049.22,1017.884 1044.029,1021.059 1040.051,1023.028L1040.046,1023.03C1016.242,1034.813 986.479,1042.182 950.344,1042.182C925.434,1042.182 901.445,1038.786 878.363,1032.041Z" style="fill:white;"/>
        </g>
        <g id="outer" transform="matrix(0.958522,0.067407,0,0.971632,72.218955,144.193485)">
            <path d="M1061.664,958.842C1059.045,960.729 1034.853,979.381 1023.005,985.248L1023.003,985.249C1004.54,994.388 981.389,999.64 953.361,999.64C932.531,999.64 912.469,996.809 893.167,991.169L893.164,991.168C872.648,985.169 856.09,977.134 843.218,967.575L822.121,951.907L857.287,865.307C852.253,859.815 847.854,853.593 844.115,846.616L844.111,846.609C837.422,834.114 833.544,818.533 833.544,799.565C833.544,778.57 839.033,759.45 849.622,742.126C858.497,727.605 953.866,653.759 957.318,651.146L844.756,651.146L844.756,346.111L1046.63,192.659L1182.87,192.659C1208.349,192.659 1230.244,197.516 1248.738,206.573C1267.344,215.68 1281.965,228.495 1292.717,244.893L1387.151,244.893C1395.709,242.988 1404.874,241.989 1414.664,241.989L1449.037,241.989L1449.037,260.66C1449.991,260.088 1450.955,259.525 1451.929,258.972C1471.427,247.908 1493.752,241.989 1519.05,241.989C1531.932,241.989 1544.043,243.517 1555.399,246.521L1554.787,244.893L1694.999,244.893L1698.192,253.804C1702.902,249.543 1795.761,180.303 1796.437,179.632L1796.44,179.628C1810.001,166.149 1827.555,158.327 1849.826,158.327C1870.378,158.327 1886.624,164.842 1899.132,176.555C1912.474,189.047 1919.364,204.984 1919.364,224.571C1919.364,230.014 1918.862,235.196 1917.882,240.125L1993.144,178.744L2124.605,178.744L2124.605,270.584C2129.805,266.373 2135.381,262.553 2141.33,259.121C2160.782,247.897 2182.647,241.989 2207.042,241.989C2229.407,241.989 2249.765,247.071 2268.163,257.091C2270.008,258.096 2271.817,259.145 2273.59,260.238L2282.14,260.238L2282.14,244.893L2402.38,244.893C2410.653,242.972 2419.321,241.989 2428.391,241.989C2447.557,241.989 2464.73,246.305 2479.999,254.659C2493.183,261.872 2504.261,272.194 2512.912,285.923C2516.824,282.835 2520.949,279.955 2525.284,277.284C2532.876,270.203 2541.398,264.039 2550.851,258.792C2570.598,247.828 2593.075,241.989 2618.413,241.989C2644.38,241.989 2666.684,248.305 2685.538,260.311C2692.98,265.049 2699.624,270.504 2705.46,276.683C2705.639,276.572 2705.819,276.461 2706,276.35C2713.008,269.798 2720.794,264.058 2729.351,259.121C2748.804,247.897 2770.669,241.989 2795.063,241.989C2817.428,241.989 2837.787,247.071 2856.184,257.091C2874.859,267.26 2889.854,281.963 2900.959,301.409C2911.555,319.964 2917.284,342.417 2917.284,369.024C2917.284,371.974 2917.182,375.276 2916.965,378.932C2916.774,382.123 2916.565,385.047 2916.34,387.703L2909.144,423.755L2916.791,432.465C2916.791,432.465 2752.899,570.261 2745.572,574.651C2745.488,574.731 2745.404,574.811 2745.32,574.89L2745.32,586.416C2748.952,586.075 2752.682,585.902 2756.51,585.902C2778.294,585.902 2798.032,591.396 2815.745,602.323C2832.885,612.895 2846.689,627.788 2856.831,647.296C2866.372,665.645 2871.474,687.327 2871.474,712.528C2871.474,738.309 2866.096,760.51 2856.335,779.28C2845.581,799.961 2830.911,815.787 2812.733,827.119L2812.729,827.121C2812.242,827.424 2617.586,976.377 2610.859,980.57L2610.856,980.572C2592.482,992.021 2572.046,997.963 2549.45,997.963C2539.954,997.963 2531.149,996.969 2523.007,995.059L2411.986,995.059L2411.986,977.785C2406.335,981.446 2400.309,984.651 2393.903,987.395L2393.9,987.396C2378.06,994.179 2359.415,997.963 2337.87,997.963C2311.911,997.963 2289.319,992.305 2269.921,981.537L2269.919,981.535C2261.083,976.628 2253.132,970.904 2246.061,964.368L2232.281,964.368L2207.55,995.059L2087.774,995.059L2082.02,975.058L2060.442,995.059L1940.846,995.059L1925.267,942.442C1922.719,944.278 1920.087,946.032 1917.371,947.704C1911.251,953.415 1904.522,958.53 1897.184,963.049C1889.923,969.824 1881.806,975.76 1872.831,980.858L1872.828,980.86C1853.168,992.023 1830.789,997.963 1805.555,997.963C1780.94,997.963 1759.175,992.328 1740.134,981.438L1740.13,981.436C1739.146,980.872 1738.173,980.299 1737.211,979.714L1725.632,979.714L1725.632,995.059L1515.077,995.059C1506.857,996.955 1497.963,997.963 1488.368,997.963C1466.852,997.963 1447.143,992.464 1429.258,981.412L1429.256,981.41C1428.36,980.856 1427.473,980.291 1426.595,979.714L1419.567,995.059L1301.354,995.059C1293.351,996.99 1285.077,997.963 1276.528,997.963C1256.836,997.963 1239.258,993.571 1223.692,985.1L1223.688,985.098C1219.618,982.882 1215.749,980.375 1212.09,977.569L1208.111,980.368C1199.289,986.574 1188.749,991.414 1176.298,994.387C1166.412,996.747 1156.12,997.963 1145.417,997.963C1113.845,997.963 1089.742,988.402 1072.212,971.38L1072.208,971.377C1068.329,967.607 1064.802,963.434 1061.664,958.842Z"/>
        </g>
        <g id="inner" transform="matrix(0.958522,0.067407,0,0.971632,72.218955,144.193485)">
            <g transform="matrix(0.913866,0,0,1,74.111905,0)">
                <g transform="matrix(331.314468,0,0,331.314468,860.423674,614.588338)">
                    <path d="M0.07,-0L0.07,-0.7L0.39,-0.7C0.454,-0.7 0.509,-0.69 0.556,-0.669C0.602,-0.648 0.638,-0.618 0.663,-0.579C0.689,-0.54 0.701,-0.494 0.701,-0.441C0.701,-0.388 0.689,-0.343 0.663,-0.304C0.638,-0.265 0.602,-0.235 0.556,-0.214C0.509,-0.193 0.454,-0.183 0.39,-0.183L0.18,-0.183L0.268,-0.269L0.268,-0L0.07,-0ZM0.268,-0.248L0.18,-0.339L0.378,-0.339C0.419,-0.339 0.45,-0.348 0.471,-0.366C0.491,-0.384 0.501,-0.409 0.501,-0.441C0.501,-0.473 0.491,-0.499 0.471,-0.517C0.45,-0.535 0.419,-0.544 0.378,-0.544L0.18,-0.544L0.268,-0.635L0.268,-0.248Z" style="fill:rgb(0,160,244);fill-rule:nonzero;"/>
                </g>
            </g>
            <g transform="matrix(0.913866,0,0,1,93.189773,0)">
                <g transform="matrix(331.314468,0,0,331.314468,1081.913722,614.588338)">
                    <path d="M0.061,-0L0.061,-0.542L0.242,-0.542L0.242,-0.384L0.215,-0.429C0.231,-0.47 0.257,-0.5 0.293,-0.52C0.329,-0.541 0.373,-0.551 0.424,-0.551L0.424,-0.38C0.415,-0.381 0.408,-0.382 0.401,-0.383C0.395,-0.383 0.388,-0.383 0.381,-0.383C0.343,-0.383 0.311,-0.373 0.287,-0.352C0.263,-0.33 0.251,-0.296 0.251,-0.249L0.251,-0L0.061,-0Z" style="fill:white;fill-rule:nonzero;"/>
                </g>
                <g transform="matrix(331.314468,0,0,331.314468,1226.14824,614.588338)">
                    <path d="M0.333,0.009C0.274,0.009 0.221,-0.003 0.175,-0.027C0.129,-0.051 0.093,-0.084 0.067,-0.127C0.04,-0.169 0.027,-0.217 0.027,-0.272C0.027,-0.326 0.04,-0.375 0.067,-0.417C0.093,-0.459 0.129,-0.492 0.175,-0.515C0.221,-0.539 0.274,-0.551 0.333,-0.551C0.393,-0.551 0.445,-0.539 0.492,-0.515C0.538,-0.492 0.574,-0.459 0.6,-0.417C0.626,-0.375 0.639,-0.326 0.639,-0.272C0.639,-0.217 0.626,-0.169 0.6,-0.127C0.574,-0.084 0.538,-0.051 0.492,-0.027C0.445,-0.003 0.393,0.009 0.333,0.009ZM0.333,-0.142C0.355,-0.142 0.374,-0.147 0.391,-0.157C0.408,-0.167 0.422,-0.182 0.432,-0.202C0.442,-0.221 0.447,-0.244 0.447,-0.272C0.447,-0.299 0.442,-0.323 0.432,-0.342C0.422,-0.361 0.408,-0.375 0.391,-0.385C0.374,-0.395 0.355,-0.4 0.333,-0.4C0.312,-0.4 0.292,-0.395 0.275,-0.385C0.258,-0.375 0.245,-0.361 0.235,-0.342C0.224,-0.323 0.219,-0.299 0.219,-0.272C0.219,-0.244 0.224,-0.221 0.235,-0.202C0.245,-0.182 0.258,-0.167 0.275,-0.157C0.292,-0.147 0.312,-0.142 0.333,-0.142Z" style="fill:white;fill-rule:nonzero;"/>
                </g>
                <g transform="matrix(331.314468,0,0,331.314468,1441.36555,614.588338)">
                    <path d="M0.212,-0L-0.011,-0.542L0.184,-0.542L0.362,-0.089L0.264,-0.089L0.451,-0.542L0.632,-0.542L0.408,-0L0.212,-0Z" style="fill:white;fill-rule:nonzero;"/>
                </g>
                <g transform="matrix(331.314468,0,0,331.314468,1646.78052,614.588338)">
                    <path d="M0.061,-0L0.061,-0.542L0.251,-0.542L0.251,-0L0.061,-0ZM0.156,-0.602C0.121,-0.602 0.093,-0.612 0.072,-0.631C0.05,-0.65 0.04,-0.674 0.04,-0.703C0.04,-0.731 0.05,-0.755 0.072,-0.775C0.093,-0.794 0.121,-0.804 0.156,-0.804C0.191,-0.804 0.219,-0.795 0.24,-0.776C0.262,-0.758 0.272,-0.735 0.272,-0.706C0.272,-0.676 0.262,-0.651 0.24,-0.632C0.219,-0.612 0.191,-0.602 0.156,-0.602Z" style="fill:white;fill-rule:nonzero;"/>
                </g>
                <g transform="matrix(331.314468,0,0,331.314468,1750.481949,614.588338)">
                    <path d="M0.297,0.009C0.248,0.009 0.203,-0.003 0.163,-0.026C0.122,-0.048 0.09,-0.081 0.066,-0.123C0.042,-0.164 0.03,-0.214 0.03,-0.272C0.03,-0.329 0.042,-0.379 0.066,-0.42C0.09,-0.462 0.122,-0.494 0.163,-0.517C0.203,-0.54 0.248,-0.551 0.297,-0.551C0.343,-0.551 0.383,-0.541 0.415,-0.521C0.447,-0.501 0.472,-0.47 0.489,-0.429C0.506,-0.388 0.514,-0.335 0.514,-0.272C0.514,-0.207 0.506,-0.155 0.49,-0.113C0.474,-0.072 0.45,-0.041 0.418,-0.021C0.386,-0.001 0.346,0.009 0.297,0.009ZM0.337,-0.142C0.358,-0.142 0.377,-0.147 0.394,-0.157C0.411,-0.167 0.425,-0.182 0.435,-0.202C0.445,-0.221 0.45,-0.244 0.45,-0.272C0.45,-0.299 0.445,-0.323 0.435,-0.342C0.425,-0.361 0.411,-0.375 0.394,-0.385C0.377,-0.395 0.358,-0.4 0.337,-0.4C0.315,-0.4 0.296,-0.395 0.279,-0.385C0.262,-0.375 0.248,-0.361 0.238,-0.342C0.228,-0.323 0.223,-0.299 0.223,-0.272C0.223,-0.244 0.228,-0.221 0.238,-0.202C0.248,-0.182 0.262,-0.167 0.279,-0.157C0.296,-0.147 0.315,-0.142 0.337,-0.142ZM0.456,-0L0.456,-0.093L0.457,-0.272L0.447,-0.451L0.447,-0.742L0.637,-0.742L0.637,-0L0.456,-0Z" style="fill:white;fill-rule:nonzero;"/>
                </g>
                <g transform="matrix(331.314468,0,0,331.314468,1981.739447,614.588338)">
                    <path d="M0.345,0.009C0.281,0.009 0.225,-0.003 0.177,-0.028C0.13,-0.052 0.093,-0.085 0.066,-0.128C0.04,-0.17 0.027,-0.218 0.027,-0.272C0.027,-0.326 0.04,-0.374 0.066,-0.416C0.092,-0.459 0.127,-0.492 0.172,-0.515C0.217,-0.539 0.268,-0.551 0.325,-0.551C0.378,-0.551 0.427,-0.54 0.471,-0.518C0.515,-0.496 0.55,-0.465 0.576,-0.423C0.602,-0.381 0.615,-0.33 0.615,-0.27C0.615,-0.263 0.615,-0.256 0.614,-0.247C0.614,-0.238 0.613,-0.23 0.612,-0.223L0.183,-0.223L0.183,-0.323L0.511,-0.323L0.439,-0.295C0.439,-0.319 0.435,-0.341 0.425,-0.359C0.415,-0.377 0.402,-0.391 0.386,-0.401C0.369,-0.411 0.349,-0.416 0.326,-0.416C0.303,-0.416 0.283,-0.411 0.266,-0.401C0.249,-0.391 0.236,-0.377 0.227,-0.359C0.217,-0.341 0.213,-0.319 0.213,-0.294L0.213,-0.265C0.213,-0.238 0.218,-0.215 0.23,-0.196C0.241,-0.177 0.257,-0.162 0.277,-0.151C0.298,-0.141 0.323,-0.136 0.351,-0.136C0.378,-0.136 0.401,-0.14 0.42,-0.148C0.439,-0.155 0.458,-0.167 0.476,-0.183L0.576,-0.079C0.55,-0.05 0.518,-0.028 0.48,-0.014C0.442,0.001 0.397,0.009 0.345,0.009Z" style="fill:white;fill-rule:nonzero;"/>
                </g>
                <g transform="matrix(331.314468,0,0,331.314468,2194.443336,614.588338)">
                    <path d="M0.061,-0L0.061,-0.542L0.242,-0.542L0.242,-0.388L0.207,-0.433C0.227,-0.472 0.256,-0.502 0.292,-0.521C0.328,-0.541 0.369,-0.551 0.414,-0.551C0.456,-0.551 0.494,-0.543 0.528,-0.526C0.562,-0.509 0.589,-0.483 0.608,-0.447C0.628,-0.412 0.638,-0.366 0.638,-0.31L0.638,-0L0.448,-0L0.448,-0.279C0.448,-0.318 0.44,-0.346 0.424,-0.363C0.408,-0.381 0.387,-0.39 0.359,-0.39C0.339,-0.39 0.32,-0.385 0.304,-0.377C0.288,-0.368 0.275,-0.354 0.265,-0.335C0.256,-0.317 0.251,-0.292 0.251,-0.262L0.251,-0L0.061,-0Z" style="fill:white;fill-rule:nonzero;"/>
                </g>
                <g transform="matrix(331.314468,0,0,331.314468,2427.575998,614.588338)">
                    <path d="M0.338,0.009C0.278,0.009 0.224,-0.003 0.177,-0.027C0.13,-0.051 0.093,-0.084 0.067,-0.126C0.04,-0.169 0.027,-0.217 0.027,-0.272C0.027,-0.326 0.04,-0.375 0.067,-0.417C0.093,-0.459 0.13,-0.492 0.177,-0.515C0.224,-0.539 0.278,-0.551 0.338,-0.551C0.399,-0.551 0.452,-0.538 0.497,-0.512C0.542,-0.486 0.573,-0.45 0.592,-0.402L0.445,-0.327C0.432,-0.352 0.417,-0.371 0.398,-0.382C0.379,-0.394 0.359,-0.4 0.337,-0.4C0.315,-0.4 0.295,-0.395 0.277,-0.385C0.259,-0.375 0.245,-0.361 0.235,-0.342C0.224,-0.323 0.219,-0.299 0.219,-0.272C0.219,-0.244 0.224,-0.22 0.235,-0.201C0.245,-0.182 0.259,-0.167 0.277,-0.157C0.295,-0.147 0.315,-0.142 0.337,-0.142C0.359,-0.142 0.379,-0.148 0.398,-0.16C0.417,-0.171 0.432,-0.19 0.445,-0.215L0.592,-0.14C0.573,-0.093 0.542,-0.056 0.497,-0.03C0.452,-0.004 0.399,0.009 0.338,0.009Z" style="fill:white;fill-rule:nonzero;"/>
                </g>
                <g transform="matrix(331.314468,0,0,331.314468,2625.183372,614.588338)">
                    <path d="M0.345,0.009C0.281,0.009 0.225,-0.003 0.177,-0.028C0.13,-0.052 0.093,-0.085 0.066,-0.128C0.04,-0.17 0.027,-0.218 0.027,-0.272C0.027,-0.326 0.04,-0.374 0.066,-0.416C0.092,-0.459 0.127,-0.492 0.172,-0.515C0.217,-0.539 0.268,-0.551 0.325,-0.551C0.378,-0.551 0.427,-0.54 0.471,-0.518C0.515,-0.496 0.55,-0.465 0.576,-0.423C0.602,-0.381 0.615,-0.33 0.615,-0.27C0.615,-0.263 0.615,-0.256 0.614,-0.247C0.614,-0.238 0.613,-0.23 0.612,-0.223L0.183,-0.223L0.183,-0.323L0.511,-0.323L0.439,-0.295C0.439,-0.319 0.435,-0.341 0.425,-0.359C0.415,-0.377 0.402,-0.391 0.386,-0.401C0.369,-0.411 0.349,-0.416 0.326,-0.416C0.303,-0.416 0.283,-0.411 0.266,-0.401C0.249,-0.391 0.236,-0.377 0.227,-0.359C0.217,-0.341 0.213,-0.319 0.213,-0.294L0.213,-0.265C0.213,-0.238 0.218,-0.215 0.23,-0.196C0.241,-0.177 0.257,-0.162 0.277,-0.151C0.298,-0.141 0.323,-0.136 0.351,-0.136C0.378,-0.136 0.401,-0.14 0.42,-0.148C0.439,-0.155 0.458,-0.167 0.476,-0.183L0.576,-0.079C0.55,-0.05 0.518,-0.028 0.48,-0.014C0.442,0.001 0.397,0.009 0.345,0.009Z" style="fill:white;fill-rule:nonzero;"/>
                </g>
                <g transform="matrix(331.314468,0,0,331.314468,2837.88726,614.588338)">
                </g>
            </g>
            <g transform="matrix(0.913866,0,0,1,74.111905,0)">
                <g transform="matrix(331.314468,0,0,331.314468,860.423674,958.501101)">
                    <path d="M0.316,0.014C0.258,0.014 0.203,0.007 0.15,-0.007C0.097,-0.022 0.054,-0.04 0.021,-0.063L0.086,-0.209C0.117,-0.189 0.154,-0.172 0.195,-0.159C0.236,-0.147 0.277,-0.14 0.317,-0.14C0.345,-0.14 0.367,-0.143 0.383,-0.148C0.399,-0.152 0.411,-0.159 0.419,-0.168C0.427,-0.176 0.431,-0.186 0.431,-0.197C0.431,-0.213 0.423,-0.226 0.409,-0.235C0.395,-0.244 0.376,-0.252 0.352,-0.258C0.329,-0.264 0.303,-0.27 0.275,-0.276C0.246,-0.282 0.218,-0.29 0.19,-0.299C0.161,-0.308 0.135,-0.32 0.112,-0.335C0.088,-0.35 0.069,-0.37 0.055,-0.395C0.041,-0.419 0.033,-0.45 0.033,-0.487C0.033,-0.529 0.045,-0.567 0.068,-0.601C0.091,-0.635 0.125,-0.663 0.171,-0.683C0.217,-0.704 0.274,-0.714 0.343,-0.714C0.389,-0.714 0.434,-0.709 0.478,-0.699C0.523,-0.688 0.562,-0.673 0.597,-0.653L0.536,-0.506C0.503,-0.524 0.47,-0.538 0.437,-0.546C0.404,-0.555 0.373,-0.56 0.342,-0.56C0.315,-0.56 0.293,-0.557 0.276,-0.551C0.259,-0.545 0.247,-0.538 0.24,-0.529C0.233,-0.519 0.229,-0.509 0.229,-0.497C0.229,-0.482 0.236,-0.47 0.251,-0.461C0.265,-0.452 0.284,-0.444 0.308,-0.439C0.331,-0.433 0.357,-0.427 0.385,-0.421C0.414,-0.415 0.442,-0.408 0.47,-0.399C0.498,-0.39 0.524,-0.378 0.548,-0.363C0.571,-0.348 0.59,-0.328 0.605,-0.304C0.619,-0.279 0.626,-0.249 0.626,-0.212C0.626,-0.171 0.615,-0.134 0.592,-0.1C0.569,-0.065 0.534,-0.038 0.489,-0.017C0.443,0.003 0.385,0.014 0.316,0.014Z" style="fill:rgb(255,196,9);fill-rule:nonzero;"/>
                </g>
            </g>
            <g transform="matrix(0.913866,0,0,1,90.98531,0)">
                <g transform="matrix(331.314468,0,0,331.314468,1056.320368,958.501101)">
                    <path d="M0.303,0.009C0.233,0.009 0.18,-0.008 0.141,-0.042C0.103,-0.077 0.083,-0.128 0.083,-0.198L0.083,-0.663L0.273,-0.663L0.273,-0.2C0.273,-0.181 0.279,-0.165 0.289,-0.154C0.299,-0.143 0.313,-0.138 0.33,-0.138C0.353,-0.138 0.372,-0.144 0.388,-0.155L0.435,-0.022C0.419,-0.012 0.399,-0.004 0.376,0.001C0.352,0.006 0.328,0.009 0.303,0.009ZM0.004,-0.401L0.004,-0.542L0.397,-0.542L0.397,-0.401L0.004,-0.401Z" style="fill:white;fill-rule:nonzero;"/>
                </g>
                <g transform="matrix(331.314468,0,0,331.314468,1204.417935,958.501101)">
                    <path d="M0.289,0.009C0.245,0.009 0.205,0 0.17,-0.017C0.135,-0.035 0.108,-0.062 0.088,-0.098C0.068,-0.135 0.059,-0.182 0.059,-0.239L0.059,-0.542L0.249,-0.542L0.249,-0.27C0.249,-0.228 0.257,-0.198 0.273,-0.18C0.288,-0.162 0.311,-0.153 0.339,-0.153C0.358,-0.153 0.375,-0.157 0.39,-0.166C0.406,-0.175 0.418,-0.188 0.427,-0.208C0.436,-0.227 0.441,-0.251 0.441,-0.281L0.441,-0.542L0.631,-0.542L0.631,-0L0.45,-0L0.45,-0.153L0.485,-0.11C0.466,-0.07 0.439,-0.04 0.404,-0.021C0.368,-0.001 0.33,0.009 0.289,0.009Z" style="fill:white;fill-rule:nonzero;"/>
                </g>
                <g transform="matrix(331.314468,0,0,331.314468,1433.687547,958.501101)">
                    <path d="M0.297,0.009C0.248,0.009 0.203,-0.003 0.163,-0.026C0.122,-0.048 0.09,-0.081 0.066,-0.123C0.042,-0.164 0.03,-0.214 0.03,-0.272C0.03,-0.329 0.042,-0.379 0.066,-0.42C0.09,-0.462 0.122,-0.494 0.163,-0.517C0.203,-0.54 0.248,-0.551 0.297,-0.551C0.343,-0.551 0.383,-0.541 0.415,-0.521C0.447,-0.501 0.472,-0.47 0.489,-0.429C0.506,-0.388 0.514,-0.335 0.514,-0.272C0.514,-0.207 0.506,-0.155 0.49,-0.113C0.474,-0.072 0.45,-0.041 0.418,-0.021C0.386,-0.001 0.346,0.009 0.297,0.009ZM0.337,-0.142C0.358,-0.142 0.377,-0.147 0.394,-0.157C0.411,-0.167 0.425,-0.182 0.435,-0.202C0.445,-0.221 0.45,-0.244 0.45,-0.272C0.45,-0.299 0.445,-0.323 0.435,-0.342C0.425,-0.361 0.411,-0.375 0.394,-0.385C0.377,-0.395 0.358,-0.4 0.337,-0.4C0.315,-0.4 0.296,-0.395 0.279,-0.385C0.262,-0.375 0.248,-0.361 0.238,-0.342C0.228,-0.323 0.223,-0.299 0.223,-0.272C0.223,-0.244 0.228,-0.221 0.238,-0.202C0.248,-0.182 0.262,-0.167 0.279,-0.157C0.296,-0.147 0.315,-0.142 0.337,-0.142ZM0.456,-0L0.456,-0.093L0.457,-0.272L0.447,-0.451L0.447,-0.742L0.637,-0.742L0.637,-0L0.456,-0Z" style="fill:white;fill-rule:nonzero;"/>
                </g>
                <g transform="matrix(331.314468,0,0,331.314468,1664.945046,958.501101)">
                    <path d="M0.061,-0L0.061,-0.542L0.251,-0.542L0.251,-0L0.061,-0ZM0.156,-0.602C0.121,-0.602 0.093,-0.612 0.072,-0.631C0.05,-0.65 0.04,-0.674 0.04,-0.703C0.04,-0.731 0.05,-0.755 0.072,-0.775C0.093,-0.794 0.121,-0.804 0.156,-0.804C0.191,-0.804 0.219,-0.795 0.24,-0.776C0.262,-0.758 0.272,-0.735 0.272,-0.706C0.272,-0.676 0.262,-0.651 0.24,-0.632C0.219,-0.612 0.191,-0.602 0.156,-0.602Z" style="fill:white;fill-rule:nonzero;"/>
                </g>
                <g transform="matrix(331.314468,0,0,331.314468,1768.646475,958.501101)">
                    <path d="M0.333,0.009C0.274,0.009 0.221,-0.003 0.175,-0.027C0.129,-0.051 0.093,-0.084 0.067,-0.127C0.04,-0.169 0.027,-0.217 0.027,-0.272C0.027,-0.326 0.04,-0.375 0.067,-0.417C0.093,-0.459 0.129,-0.492 0.175,-0.515C0.221,-0.539 0.274,-0.551 0.333,-0.551C0.393,-0.551 0.445,-0.539 0.492,-0.515C0.538,-0.492 0.574,-0.459 0.6,-0.417C0.626,-0.375 0.639,-0.326 0.639,-0.272C0.639,-0.217 0.626,-0.169 0.6,-0.127C0.574,-0.084 0.538,-0.051 0.492,-0.027C0.445,-0.003 0.393,0.009 0.333,0.009ZM0.333,-0.142C0.355,-0.142 0.374,-0.147 0.391,-0.157C0.408,-0.167 0.422,-0.182 0.432,-0.202C0.442,-0.221 0.447,-0.244 0.447,-0.272C0.447,-0.299 0.442,-0.323 0.432,-0.342C0.422,-0.361 0.408,-0.375 0.391,-0.385C0.374,-0.395 0.355,-0.4 0.333,-0.4C0.312,-0.4 0.292,-0.395 0.275,-0.385C0.258,-0.375 0.245,-0.361 0.235,-0.342C0.224,-0.323 0.219,-0.299 0.219,-0.272C0.219,-0.244 0.224,-0.221 0.235,-0.202C0.245,-0.182 0.258,-0.167 0.275,-0.157C0.292,-0.147 0.312,-0.142 0.333,-0.142Z" style="fill:white;fill-rule:nonzero;"/>
                </g>
            </g>
            <g transform="matrix(0.913866,0,0,1,163.283545,0)">
                <g transform="matrix(331.314468,0,0,331.314468,1895.687713,958.501101)">
                    <path d="M0.243,-0L0.016,-0.7L0.22,-0.7L0.411,-0.094L0.308,-0.094L0.509,-0.7L0.691,-0.7L0.881,-0.094L0.782,-0.094L0.979,-0.7L1.168,-0.7L0.941,-0L0.729,-0L0.567,-0.515L0.624,-0.515L0.455,-0L0.243,-0Z" style="fill:rgb(221,45,74);fill-rule:nonzero;"/>
                </g>
            </g>
            <g transform="matrix(0.913866,0,0,1,192.592052,0)">
                <g transform="matrix(331.314468,0,0,331.314468,2235.953339,958.501101)">
                    <path d="M0.345,0.009C0.281,0.009 0.225,-0.003 0.177,-0.028C0.13,-0.052 0.093,-0.085 0.066,-0.128C0.04,-0.17 0.027,-0.218 0.027,-0.272C0.027,-0.326 0.04,-0.374 0.066,-0.416C0.092,-0.459 0.127,-0.492 0.172,-0.515C0.217,-0.539 0.268,-0.551 0.325,-0.551C0.378,-0.551 0.427,-0.54 0.471,-0.518C0.515,-0.496 0.55,-0.465 0.576,-0.423C0.602,-0.381 0.615,-0.33 0.615,-0.27C0.615,-0.263 0.615,-0.256 0.614,-0.247C0.614,-0.238 0.613,-0.23 0.612,-0.223L0.183,-0.223L0.183,-0.323L0.511,-0.323L0.439,-0.295C0.439,-0.319 0.435,-0.341 0.425,-0.359C0.415,-0.377 0.402,-0.391 0.386,-0.401C0.369,-0.411 0.349,-0.416 0.326,-0.416C0.303,-0.416 0.283,-0.411 0.266,-0.401C0.249,-0.391 0.236,-0.377 0.227,-0.359C0.217,-0.341 0.213,-0.319 0.213,-0.294L0.213,-0.265C0.213,-0.238 0.218,-0.215 0.23,-0.196C0.241,-0.177 0.257,-0.162 0.277,-0.151C0.298,-0.141 0.323,-0.136 0.351,-0.136C0.378,-0.136 0.401,-0.14 0.42,-0.148C0.439,-0.155 0.458,-0.167 0.476,-0.183L0.576,-0.079C0.55,-0.05 0.518,-0.028 0.48,-0.014C0.442,0.001 0.397,0.009 0.345,0.009Z" style="fill:white;fill-rule:nonzero;"/>
                </g>
                <g transform="matrix(331.314468,0,0,331.314468,2448.657228,958.501101)">
                    <path d="M0.402,0.009C0.354,0.009 0.313,-0.001 0.281,-0.021C0.248,-0.041 0.224,-0.072 0.208,-0.113C0.192,-0.155 0.184,-0.207 0.184,-0.272C0.184,-0.335 0.193,-0.388 0.21,-0.429C0.226,-0.47 0.251,-0.501 0.284,-0.521C0.317,-0.541 0.356,-0.551 0.402,-0.551C0.451,-0.551 0.496,-0.54 0.536,-0.517C0.577,-0.494 0.609,-0.462 0.632,-0.42C0.656,-0.379 0.668,-0.329 0.668,-0.272C0.668,-0.214 0.656,-0.164 0.632,-0.123C0.609,-0.081 0.577,-0.048 0.536,-0.026C0.496,-0.003 0.451,0.009 0.402,0.009ZM0.061,-0L0.061,-0.742L0.251,-0.742L0.251,-0.451L0.241,-0.272L0.242,-0.093L0.242,-0L0.061,-0ZM0.362,-0.142C0.383,-0.142 0.403,-0.147 0.42,-0.157C0.437,-0.167 0.45,-0.182 0.46,-0.202C0.471,-0.221 0.476,-0.244 0.476,-0.272C0.476,-0.299 0.471,-0.323 0.46,-0.342C0.45,-0.361 0.437,-0.375 0.42,-0.385C0.403,-0.395 0.383,-0.4 0.362,-0.4C0.341,-0.4 0.321,-0.395 0.304,-0.385C0.287,-0.375 0.274,-0.361 0.263,-0.342C0.253,-0.323 0.248,-0.299 0.248,-0.272C0.248,-0.244 0.253,-0.221 0.263,-0.202C0.274,-0.182 0.287,-0.167 0.304,-0.157C0.321,-0.147 0.341,-0.142 0.362,-0.142Z" style="fill:white;fill-rule:nonzero;"/>
                </g>
            </g>
        </g>
    </g>
</svg>
