<?xml version="1.0" encoding="UTF-8" standalone="no"?><!DOCTYPE svg PUBLIC "-//W3C//DTD SVG 1.1//EN" "http://www.w3.org/Graphics/SVG/1.1/DTD/svg11.dtd"><svg width="100%" height="100%" viewBox="0 0 1164 567" version="1.1" xmlns="http://www.w3.org/2000/svg" xmlns:xlink="http://www.w3.org/1999/xlink" xml:space="preserve" xmlns:serif="http://www.serif.com/" style="fill-rule:evenodd;clip-rule:evenodd;stroke-linejoin:round;stroke-miterlimit:2;"><g id="long"><path id="outer" d="M170.725,444.395c-1.332,0.879 -13.634,9.628 -19.659,12.229l-0.001,0c-9.389,4.051 -21.161,5.93 -35.414,4.928c-10.593,-0.745 -20.794,-2.922 -30.61,-6.519l-0.002,-0.001c-10.432,-3.826 -18.852,-8.56 -25.398,-13.948l-10.728,-8.831l17.882,-43.382c-2.559,-3.011 -4.797,-6.375 -6.698,-10.106l-0.002,-0.004c-3.401,-6.68 -5.374,-14.851 -5.374,-24.628c0,-10.822 2.791,-20.482 8.176,-29.033c4.513,-7.168 53.01,-41.822 54.765,-43.046l-57.24,-4.025l0,-157.236l102.656,-71.88l69.28,4.872c12.957,0.911 24.09,4.197 33.495,9.528c9.462,5.36 16.897,12.488 22.364,21.326l48.021,3.377c4.352,-0.676 9.012,-0.863 13.99,-0.513l17.479,1.229l-0,9.625c0.485,-0.261 0.975,-0.517 1.471,-0.767c9.915,-5.006 21.268,-7.259 34.132,-6.354c6.551,0.461 12.709,1.682 18.484,3.636l-0.311,-0.861l71.3,5.014l1.624,4.707c2.395,-2.028 49.616,-34.398 49.959,-34.72l0.002,-0.002c6.896,-6.463 15.822,-9.868 27.148,-9.071c10.451,0.735 18.712,4.675 25.072,11.159c6.785,6.916 10.288,15.378 10.288,25.474c0,2.806 -0.256,5.459 -0.754,7.964l38.272,-28.948l66.849,4.701l-0,47.341c2.645,-1.985 5.48,-3.754 8.505,-5.31c9.892,-5.09 21.01,-7.354 33.415,-6.481c11.373,0.8 21.726,4.148 31.081,9.971c0.938,0.584 1.858,1.189 2.76,1.816l4.348,0.306l-0,-7.91l61.144,4.3c4.207,-0.694 8.615,-0.891 13.227,-0.567c9.746,0.685 18.479,3.524 26.244,8.376c6.704,4.19 12.338,9.906 16.736,17.293c1.99,-1.452 4.087,-2.789 6.292,-4.011c3.861,-3.378 8.194,-6.251 13.001,-8.618c10.042,-4.946 21.471,-7.152 34.356,-6.246c13.205,0.929 24.547,4.982 34.134,11.845c3.784,2.709 7.163,5.758 10.13,9.152c0.091,-0.051 0.183,-0.102 0.275,-0.153c3.564,-3.127 7.523,-5.807 11.875,-8.046c9.892,-5.09 21.01,-7.354 33.415,-6.481c11.373,0.8 21.726,4.148 31.081,9.971c9.496,5.91 17.122,14.025 22.768,24.445c5.388,9.944 8.302,21.722 8.302,35.438c0,1.52 -0.052,3.219 -0.163,5.096c-0.097,1.638 -0.203,3.138 -0.318,4.498l-3.659,18.326l3.889,4.763c0,0 -83.341,65.169 -87.067,67.17c-0.043,0.038 -0.085,0.076 -0.128,0.114l-0,5.941c1.847,-0.046 3.744,-0.002 5.69,0.135c11.077,0.779 21.114,4.317 30.122,10.583c8.716,6.063 15.735,14.233 20.893,24.651c4.852,9.8 7.446,21.158 7.446,34.149c0,13.289 -2.735,24.541 -7.698,33.867c-5.469,10.276 -12.929,17.909 -22.172,23.1l-0.002,0.001c-0.248,0.139 -99.233,69.958 -102.654,71.879l-0.002,0.001c-9.343,5.244 -19.735,7.577 -31.226,6.769c-4.829,-0.34 -9.306,-1.167 -13.446,-2.443l-56.456,-3.97l0,-8.904c-2.873,1.685 -5.938,3.121 -9.196,4.307l-0.001,0.001c-8.055,2.93 -17.536,4.214 -28.492,3.443c-13.201,-0.928 -24.689,-4.653 -34.553,-10.897l-0.001,-0.001c-4.493,-2.845 -8.536,-6.08 -12.132,-9.702l-7.007,-0.493l-12.576,14.935l-60.908,-4.283l-2.926,-10.516l-10.973,9.538l-60.816,-4.277l-7.922,-27.679c-1.296,0.855 -2.634,1.665 -4.015,2.43c-3.112,2.725 -6.534,5.121 -10.266,7.188c-3.692,3.233 -7.82,6.002 -12.384,8.309l-0.002,0.001c-9.997,5.051 -21.377,7.313 -34.209,6.41c-12.517,-0.88 -23.585,-4.563 -33.268,-10.858l-0.002,-0.001c-0.5,-0.325 -0.995,-0.656 -1.485,-0.992l-5.888,-0.414l-0,7.91l-107.07,-7.53c-4.18,0.683 -8.703,0.885 -13.582,0.542c-10.941,-0.769 -20.963,-4.309 -30.058,-10.645l-0.001,-0.001c-0.456,-0.318 -0.907,-0.641 -1.353,-0.97l-3.574,7.659l-60.113,-4.227c-4.069,0.709 -8.277,0.915 -12.624,0.609c-10.014,-0.704 -18.952,-3.597 -26.868,-8.52l-0.002,-0.001c-2.07,-1.288 -4.037,-2.719 -5.898,-4.296l-2.023,1.3c-4.486,2.884 -9.846,5.002 -16.178,6.089c-5.027,0.863 -10.261,1.122 -15.703,0.739c-16.054,-1.129 -28.311,-6.919 -37.226,-16.321l-0.002,-0.002c-1.973,-2.082 -3.766,-4.359 -5.362,-6.838Z"/><path d="M77.514,475.571l-0.006,-0.002c-13.075,-4.795 -23.564,-10.843 -31.768,-17.596l-23.213,-19.107l19.549,-47.424c-0.504,-0.898 -0.993,-1.812 -1.467,-2.742c6.606,12.957 19.236,11.958 19.483,11.937l0.004,-0l-19.493,-11.949c-4.778,-9.384 -7.755,-20.818 -7.755,-34.553c0,-15.175 3.99,-28.698 11.54,-40.689c1.489,-2.365 5.496,-6.926 11.594,-12.115c0.592,-0.504 1.209,-1.022 1.849,-1.554l-19.281,-1.356l0,-189.014l118.333,-82.858l77.012,5.416c16.551,1.164 30.731,5.508 42.745,12.317c9.161,5.19 16.9,11.626 23.268,19.25l35.615,2.505c5.109,-0.615 10.52,-0.757 16.243,-0.355l37.82,2.66l-0,1.177c4.897,-0.432 9.983,-0.475 15.262,-0.103c5.926,0.417 11.602,1.324 17.035,2.695l72.291,5.084c12.986,-9.047 31.073,-21.526 36.306,-25.157l0.181,-0.126c10.928,-9.696 24.818,-15.028 42.392,-13.792c16.357,1.15 29.199,7.513 39.154,17.663c3.214,3.276 5.973,6.766 8.267,10.476l17.272,-13.064l95.376,6.707l-0,35.129c6.842,-1.184 14.032,-1.542 21.58,-1.011c5.7,0.401 11.205,1.29 16.517,2.659l80.476,5.66c4.989,-0.633 10.176,-0.782 15.566,-0.403c13.488,0.949 25.557,4.932 36.302,11.647c3.183,1.989 6.201,4.215 9.043,6.687c1.851,-1.095 3.761,-2.128 5.729,-3.097c13.323,-6.561 28.459,-9.644 45.554,-8.442c17.2,1.21 31.979,6.534 44.558,15.33l0.314,-0.162c13.316,-6.852 28.259,-10.025 44.958,-8.851c15.044,1.058 28.729,5.517 41.105,13.22c12.678,7.89 22.904,18.683 30.443,32.595c6.98,12.881 10.944,28.093 10.944,45.859c0,1.904 -0.062,4.033 -0.201,6.385c-0.108,1.837 -0.228,3.52 -0.357,5.046l-6.101,5.609l0.762,0.933l4.993,-4.095l-1.638,8.205l11.489,14.073l-17.598,13.761c0,0 -32.235,25.067 -58.192,45.04c1.976,1.148 3.917,2.386 5.825,3.713c11.654,8.107 21.109,18.973 28.005,32.904c6.235,12.594 9.717,27.159 9.717,43.854c0,17.341 -3.786,31.973 -10.263,44.144c-7.569,14.224 -17.977,24.711 -30.772,31.896l-10.711,2.802l-0.003,-0.012c-0.041,-0.402 -1.048,-10.08 -2.728,-19.947c1.735,-1.22 2.706,-1.902 2.73,-1.915l0.002,-0.001c9.244,-5.191 16.704,-12.824 22.172,-23.1c4.963,-9.327 7.698,-20.578 7.698,-33.867c0,-12.991 -2.594,-24.349 -7.446,-34.149c-5.157,-10.418 -12.177,-18.589 -20.893,-24.651c-9.008,-6.266 -19.045,-9.804 -30.122,-10.583c-1.947,-0.137 -3.843,-0.181 -5.69,-0.135l0,-5.941l0.128,-0.114c3.726,-2.001 87.067,-67.17 87.067,-67.17l-3.889,-4.763l3.659,-18.326c0.115,-1.361 0.221,-2.86 0.318,-4.498c0.111,-1.877 0.163,-3.575 0.163,-5.096c0,-13.715 -2.913,-25.494 -8.302,-35.438c-5.647,-10.421 -13.272,-18.536 -22.768,-24.445c-9.355,-5.823 -19.708,-9.171 -31.081,-9.971c-12.405,-0.872 -23.524,1.391 -33.415,6.481c-4.352,2.238 -8.311,4.919 -11.875,8.046l-0.275,0.153c-2.968,-3.394 -6.346,-6.444 -10.13,-9.152c-9.588,-6.863 -20.929,-10.916 -34.134,-11.845c-12.885,-0.906 -24.314,1.3 -34.356,6.246c-4.807,2.367 -9.14,5.239 -13.001,8.618c-2.205,1.222 -4.302,2.559 -6.292,4.011c-4.399,-7.386 -10.032,-13.103 -16.736,-17.293c-7.764,-4.852 -16.497,-7.691 -26.244,-8.376c-4.612,-0.324 -9.02,-0.128 -13.227,0.567l-61.144,-4.3l0,7.91l-4.348,-0.306c-0.902,-0.627 -1.821,-1.232 -2.76,-1.816c-9.355,-5.823 -19.708,-9.171 -31.081,-9.971c-12.405,-0.872 -23.524,1.391 -33.415,6.481c-3.025,1.556 -5.86,3.326 -8.505,5.31l0,-47.341l-66.849,-4.701l-38.272,28.948c0.498,-2.506 0.754,-5.158 0.754,-7.964c0,-10.097 -3.504,-18.558 -10.288,-25.474c-6.36,-6.485 -14.622,-10.425 -25.072,-11.159c-11.325,-0.796 -20.252,2.608 -27.148,9.071l-0.002,0.002c-0.068,0.063 -1.949,1.367 -4.946,3.435c-3.197,-10.653 -7.241,-21.578 -9.9,-19.494l-0.112,0.096l8.171,20.667c-0.001,0.001 -0.003,0.002 -0.004,0.003l-8.173,-20.664c-9.66,9.059 -5.694,18.647 0.573,25.904c-14.21,9.796 -34.038,23.477 -35.568,24.773l-1.624,-4.707l-57.1,-4.016l2.48,-3.282l-3.168,3.234l-13.511,-0.95l0.311,0.861c-5.775,-1.954 -11.933,-3.175 -18.484,-3.636c-12.864,-0.905 -24.217,1.348 -34.132,6.354c-0.495,0.25 -0.985,0.506 -1.471,0.767l0,-9.625l-17.479,-1.229c-4.978,-0.35 -9.638,-0.163 -13.99,0.513l-48.021,-3.377c-5.467,-8.837 -12.902,-15.966 -22.364,-21.326c-9.404,-5.33 -20.538,-8.616 -33.495,-9.528l-69.28,-4.872l-102.656,71.88l-0,157.236l57.24,4.025c-1.755,1.224 -50.252,35.878 -54.765,43.046c-5.384,8.552 -8.176,18.211 -8.176,29.033c0,9.777 1.972,17.948 5.374,24.628l0.002,0.004c1.901,3.73 4.139,7.095 6.698,10.106l-17.882,43.382l10.728,8.831c6.546,5.388 14.966,10.122 25.398,13.948l0.002,0.001c9.815,3.598 20.017,5.774 30.61,6.519c7.764,0.546 14.793,0.237 21.101,-0.813c5.278,9.498 14.313,17.76 14.313,17.76c0,0 3.443,0.463 8.666,-1.79c-12.104,5.223 -27.239,7.957 -45.615,6.664c-12.667,-0.891 -24.866,-3.499 -36.603,-7.802c4.614,1.691 7.526,1.336 7.526,1.336l-7.526,-1.336Zm-36.905,-86.871l-0.006,-0.012l19.49,11.95l-19.483,-11.937Zm1020.558,72.289c0,0 4.502,0.682 10.705,-2.799c-0.248,0.139 -99.229,69.956 -102.65,71.877l-10.711,2.802l-0.003,-0.012c-0.042,-0.408 -1.078,-10.372 -2.804,-20.39c0.946,-0.462 1.881,-0.953 2.806,-1.472l0.002,-0.001c2.664,-1.496 63.308,-44.186 90.11,-63.056c5.457,7.329 12.39,12.925 12.543,13.049l0.002,0.002Zm-102.656,71.88c0,0 4.502,0.682 10.705,-2.799c-13.012,7.304 -27.465,10.64 -43.467,9.514c-5.589,-0.393 -10.83,-1.282 -15.737,-2.604l-74.05,-5.207c-5.565,0.582 -11.497,0.689 -17.804,0.245c-17.099,-1.202 -31.942,-6.147 -44.719,-14.235c6.616,4.188 11.699,3.391 11.699,3.391l-11.699,-3.391l-0.005,-0.003c-0.65,-0.412 -1.293,-0.83 -1.929,-1.254l-8.517,10.115l-162.004,-11.393l-3.779,-13.205c-1.344,0.775 -2.718,1.518 -4.123,2.228l-9.869,2.353l-0.003,-0.011c-0.031,-0.393 -0.85,-10.552 -2.379,-20.726c0.802,-0.362 1.595,-0.741 2.38,-1.138l0.002,-0.001c4.563,-2.307 8.691,-5.076 12.384,-8.309c3.731,-2.067 7.153,-4.463 10.266,-7.188c1.381,-0.765 2.719,-1.575 4.015,-2.43l7.922,27.679l60.816,4.277l10.973,-9.538l2.926,10.516l60.908,4.283l12.576,-14.935l7.007,0.493c3.596,3.622 7.639,6.857 12.132,9.702l0.001,0.001c9.864,6.244 21.352,9.969 34.553,10.897c5.145,0.362 9.966,0.271 14.466,-0.231c0.424,0.826 0.876,1.644 1.348,2.452l-0,-2.615c3.311,-0.436 6.443,-1.099 9.4,-1.97l2.304,1.32c-0.054,-0.663 -0.112,-1.329 -0.172,-1.995c0.385,-0.131 0.767,-0.265 1.146,-0.403l0.001,-0.001c3.258,-1.186 6.322,-2.622 9.196,-4.307l-0,8.904l56.456,3.97c4.14,1.276 8.618,2.103 13.446,2.443c5.771,0.406 11.266,0.019 16.49,-1.13c5.564,8.832 14.56,16.093 14.736,16.234l0.002,0.002Zm-375.297,-26.244c0,0 4.045,0.589 9.863,-2.35c-13.337,6.739 -28.49,9.911 -45.608,8.707c-5.999,-0.422 -11.741,-1.345 -17.233,-2.749l0,0.04l-23.41,-1.646l-104.748,-7.367c-4.961,0.62 -10.259,0.776 -15.904,0.379c-6.786,-0.477 -13.314,-1.733 -19.582,-3.772l-0.406,0.87l-72.692,-5.113c-4.877,0.647 -9.891,0.802 -15.044,0.44c-11.975,-0.842 -22.815,-4.01 -32.595,-9.278c-4.026,1.555 -8.397,2.774 -13.137,3.588c-6.703,1.151 -13.682,1.511 -20.94,1.001c-18.394,-1.294 -33.08,-7.264 -44.612,-16.64c-2.771,1.648 -5.41,3.099 -7.433,3.972l-0.003,0.001l-8.666,1.79c0,0 -0.499,-10.593 -1.765,-21.15c0.598,-0.233 1.186,-0.475 1.765,-0.725c6.025,-2.6 18.327,-11.35 19.659,-12.229c1.596,2.479 3.389,4.757 5.362,6.838l0.002,0.002c8.914,9.401 21.171,15.192 37.226,16.321c5.443,0.383 10.677,0.124 15.703,-0.739c6.332,-1.087 11.691,-3.205 16.178,-6.089l2.023,-1.3c1.861,1.577 3.828,3.008 5.898,4.296l0.002,0.001c7.916,4.923 16.854,7.816 26.868,8.52c4.347,0.306 8.555,0.1 12.624,-0.609l60.113,4.227l3.574,-7.659c0.446,0.329 0.897,0.652 1.353,0.97l0.001,0.001c9.095,6.337 19.117,9.876 30.058,10.645c4.879,0.343 9.402,0.142 13.582,-0.542l107.07,7.53l0,-7.91l5.888,0.414c0.489,0.336 0.984,0.667 1.485,0.992l0.002,0.001c9.683,6.294 20.75,9.977 33.268,10.858c6.996,0.492 13.561,0.043 19.706,-1.285c5.441,9.024 14.337,16.607 14.503,16.747l0.002,0.002Zm477.949,-45.649l0.001,0.01l-4.619,-17.666l4.618,17.656Zm-910.098,17.521l-4.187,-20.268c0,-0 0.001,-0 0.001,-0l4.186,20.268Zm807.443,54.359l0.001,0.01l-4.6,-17.593l4.599,17.582Zm-375.297,-26.243l0.001,0.009l-4.238,-17.785l4.237,17.776Zm-79.398,-7.97l3.974,1.178l0.001,-0.001l-3.982,-1.181l0.007,0.005Zm-158.667,-11.523l12.504,3.926l-12.509,-3.93l0.005,0.003Zm-174.65,-16.417c-0.669,0.417 -1.342,0.832 -2.011,1.238c4.272,1.632 7.511,1.177 7.6,1.164l-5.589,-2.403Zm0,0l0.001,-0.001l-10.288,-4.425l0.006,0.006l10.281,4.42Zm77.191,13.342l0.001,-0.001l-6.13,-1.752l0.006,0.004l6.122,1.748Zm0,0c-0.449,0.189 -0.902,0.375 -1.359,0.555c4.065,1.42 6.788,0.995 6.788,0.995l-5.429,-1.55Zm880.792,-257.853l-0.294,-1.181l-14.332,13.176l14.626,-11.995Zm-280.294,302.433l0,-0.008l-3.213,-18.221l3.213,18.229Z" style="fill:#fff;"/><g id="inner" transform="matrix(0.508513,0.035761,0,0.515469,-369.145443,-87.823833)"><g transform="matrix(0.913866,0,0,1,74.111905,0)"><g transform="matrix(331.314468,0,0,331.314468,860.423674,614.588338)"><path d="M0.07,-0l0,-0.7l0.319,0c0.064,0 0.119,0.01 0.166,0.031c0.047,0.021 0.082,0.051 0.108,0.089c0.025,0.039 0.038,0.085 0.038,0.138c0,0.053 -0.013,0.099 -0.038,0.137c-0.025,0.039 -0.061,0.068 -0.108,0.089c-0.047,0.021 -0.102,0.032 -0.166,0.032l-0.209,0l0.088,-0.086l0,0.269l-0.198,-0Zm0.198,-0.248l-0.088,-0.091l0.198,0c0.041,0 0.072,-0.009 0.093,-0.027c0.02,-0.018 0.031,-0.043 0.031,-0.075c0,-0.032 -0.01,-0.057 -0.031,-0.075c-0.02,-0.018 -0.051,-0.027 -0.093,-0.027l-0.198,0l0.088,-0.091l0,0.388Z" style="fill:#fff;fill-rule:nonzero;"/></g><g transform="matrix(331.314468,0,0,331.314468,1102.789728,614.588338)"><path d="M0.061,-0l0,-0.542l0.181,0l0,0.158l-0.028,-0.045c0.016,-0.04 0.042,-0.071 0.078,-0.091c0.036,-0.02 0.079,-0.031 0.131,-0.031l0,0.171c-0.008,-0.001 -0.016,-0.002 -0.022,-0.003c-0.007,-0.001 -0.013,-0.001 -0.02,-0.001c-0.039,-0 -0.07,0.011 -0.094,0.032c-0.024,0.021 -0.036,0.056 -0.036,0.103l0,0.249l-0.19,-0Z" style="fill:#fff;fill-rule:nonzero;"/></g><g transform="matrix(331.314468,0,0,331.314468,1247.024246,614.588338)"><path d="M0.333,0.009c-0.059,0 -0.112,-0.012 -0.158,-0.036c-0.046,-0.024 -0.082,-0.057 -0.109,-0.099c-0.026,-0.042 -0.04,-0.091 -0.04,-0.145c0,-0.055 0.013,-0.103 0.04,-0.145c0.026,-0.042 0.063,-0.075 0.108,-0.099c0.046,-0.024 0.099,-0.036 0.158,-0.036c0.06,0 0.112,0.012 0.159,0.036c0.046,0.024 0.082,0.057 0.108,0.099c0.026,0.042 0.039,0.09 0.039,0.145c0,0.055 -0.013,0.103 -0.039,0.145c-0.026,0.042 -0.062,0.075 -0.109,0.099c-0.046,0.024 -0.099,0.036 -0.159,0.036Zm0,-0.151c0.022,0 0.041,-0.005 0.058,-0.015c0.017,-0.01 0.031,-0.025 0.041,-0.044c0.01,-0.02 0.015,-0.043 0.015,-0.07c-0,-0.028 -0.005,-0.051 -0.015,-0.07c-0.01,-0.019 -0.024,-0.033 -0.041,-0.043c-0.017,-0.01 -0.036,-0.015 -0.058,-0.015c-0.022,0 -0.041,0.005 -0.058,0.015c-0.017,0.01 -0.031,0.024 -0.041,0.043c-0.01,0.019 -0.015,0.042 -0.015,0.07c0,0.027 0.005,0.05 0.015,0.07c0.01,0.02 0.024,0.034 0.041,0.044c0.017,0.01 0.036,0.015 0.058,0.015Z" style="fill:#fff;fill-rule:nonzero;"/></g><g transform="matrix(331.314468,0,0,331.314468,1462.241556,614.588338)"><path d="M0.212,-0l-0.223,-0.542l0.195,0l0.178,0.454l-0.098,0l0.187,-0.454l0.181,0l-0.223,0.542l-0.196,-0Z" style="fill:#fff;fill-rule:nonzero;"/></g><g transform="matrix(331.314468,0,0,331.314468,1667.656526,614.588338)"><path d="M0.061,-0l0,-0.542l0.19,0l0,0.542l-0.19,-0Zm0.095,-0.602c-0.035,0 -0.063,-0.01 -0.084,-0.029c-0.021,-0.019 -0.032,-0.043 -0.032,-0.072c0,-0.029 0.011,-0.052 0.032,-0.072c0.021,-0.019 0.049,-0.029 0.084,-0.029c0.035,0 0.063,0.009 0.084,0.027c0.021,0.018 0.032,0.042 0.032,0.07c0,0.03 -0.011,0.055 -0.032,0.075c-0.021,0.02 -0.049,0.029 -0.084,0.029Z" style="fill:#fff;fill-rule:nonzero;"/></g><g transform="matrix(331.314468,0,0,331.314468,1771.357955,614.588338)"><path d="M0.297,0.009c-0.049,0 -0.093,-0.011 -0.134,-0.034c-0.041,-0.023 -0.073,-0.055 -0.097,-0.097c-0.024,-0.042 -0.036,-0.091 -0.036,-0.149c-0,-0.057 0.012,-0.107 0.036,-0.149c0.024,-0.042 0.056,-0.074 0.097,-0.097c0.041,-0.023 0.085,-0.034 0.134,-0.034c0.047,0 0.086,0.01 0.119,0.03c0.032,0.02 0.057,0.051 0.074,0.092c0.017,0.041 0.025,0.094 0.025,0.157c0,0.064 -0.008,0.117 -0.024,0.158c-0.016,0.041 -0.04,0.072 -0.072,0.092c-0.032,0.02 -0.073,0.03 -0.122,0.03Zm0.04,-0.151c0.021,0 0.041,-0.005 0.058,-0.015c0.017,-0.01 0.031,-0.025 0.041,-0.044c0.01,-0.02 0.015,-0.043 0.015,-0.07c0,-0.028 -0.005,-0.051 -0.015,-0.07c-0.01,-0.019 -0.024,-0.033 -0.041,-0.043c-0.017,-0.01 -0.036,-0.015 -0.058,-0.015c-0.021,0 -0.041,0.005 -0.058,0.015c-0.017,0.01 -0.031,0.024 -0.041,0.043c-0.01,0.019 -0.015,0.042 -0.015,0.07c0,0.027 0.005,0.05 0.015,0.07c0.01,0.02 0.024,0.034 0.041,0.044c0.017,0.01 0.036,0.015 0.058,0.015Zm0.12,0.142l0,-0.093l0.001,-0.179l-0.01,-0.179l0,-0.291l0.19,0l0,0.742l-0.181,-0Z" style="fill:#fff;fill-rule:nonzero;"/></g><g transform="matrix(331.314468,0,0,331.314468,2002.615454,614.588338)"><path d="M0.345,0.009c-0.064,0 -0.12,-0.012 -0.168,-0.036c-0.048,-0.024 -0.085,-0.058 -0.111,-0.1c-0.026,-0.042 -0.039,-0.09 -0.039,-0.144c0,-0.055 0.013,-0.103 0.039,-0.145c0.026,-0.042 0.061,-0.075 0.106,-0.099c0.045,-0.024 0.096,-0.036 0.153,-0.036c0.053,0 0.102,0.011 0.146,0.033c0.044,0.022 0.079,0.054 0.105,0.095c0.026,0.042 0.039,0.093 0.039,0.153c0,0.007 -0,0.015 -0.001,0.023c-0.001,0.009 -0.001,0.017 -0.002,0.024l-0.429,0l0,-0.1l0.329,0l-0.072,0.028c0,-0.025 -0.005,-0.046 -0.014,-0.064c-0.01,-0.018 -0.023,-0.032 -0.04,-0.042c-0.017,-0.01 -0.037,-0.015 -0.059,-0.015c-0.023,0 -0.043,0.005 -0.06,0.015c-0.017,0.01 -0.03,0.024 -0.04,0.042c-0.009,0.018 -0.014,0.04 -0.014,0.065l0,0.029c0,0.026 0.006,0.049 0.017,0.069c0.011,0.019 0.027,0.034 0.048,0.044c0.021,0.01 0.045,0.015 0.074,0.015c0.027,0 0.05,-0.004 0.069,-0.012c0.019,-0.008 0.038,-0.019 0.056,-0.035l0.1,0.104c-0.026,0.028 -0.058,0.05 -0.096,0.065c-0.038,0.015 -0.083,0.022 -0.135,0.022Z" style="fill:#fff;fill-rule:nonzero;"/></g><g transform="matrix(331.314468,0,0,331.314468,2215.319342,614.588338)"><path d="M0.061,-0l0,-0.542l0.181,0l0,0.154l-0.035,-0.045c0.02,-0.039 0.048,-0.068 0.085,-0.088c0.036,-0.02 0.077,-0.03 0.122,-0.03c0.042,0 0.081,0.008 0.114,0.025c0.034,0.017 0.06,0.043 0.08,0.079c0.02,0.035 0.029,0.081 0.029,0.137l0,0.31l-0.19,-0l0,-0.279c0,-0.039 -0.008,-0.067 -0.023,-0.084c-0.016,-0.018 -0.037,-0.026 -0.065,-0.026c-0.02,0 -0.039,0.004 -0.055,0.013c-0.016,0.009 -0.029,0.022 -0.039,0.041c-0.009,0.019 -0.014,0.043 -0.014,0.074l0,0.262l-0.19,-0Z" style="fill:#fff;fill-rule:nonzero;"/></g><g transform="matrix(331.314468,0,0,331.314468,2448.452004,614.588338)"><path d="M0.338,0.009c-0.06,0 -0.114,-0.012 -0.161,-0.036c-0.047,-0.024 -0.084,-0.057 -0.11,-0.099c-0.027,-0.042 -0.04,-0.091 -0.04,-0.145c0,-0.055 0.013,-0.103 0.04,-0.145c0.027,-0.042 0.063,-0.075 0.11,-0.099c0.047,-0.024 0.1,-0.036 0.161,-0.036c0.061,0 0.115,0.013 0.159,0.039c0.045,0.026 0.076,0.063 0.095,0.11l-0.147,0.075c-0.013,-0.025 -0.029,-0.044 -0.048,-0.055c-0.019,-0.012 -0.039,-0.017 -0.061,-0.017c-0.022,0 -0.041,0.005 -0.059,0.015c-0.018,0.01 -0.032,0.024 -0.043,0.043c-0.01,0.019 -0.016,0.042 -0.016,0.07c0,0.028 0.005,0.051 0.016,0.07c0.01,0.019 0.025,0.034 0.043,0.044c0.018,0.01 0.038,0.015 0.059,0.015c0.022,0 0.042,-0.006 0.061,-0.017c0.019,-0.012 0.035,-0.03 0.048,-0.056l0.147,0.075c-0.019,0.047 -0.051,0.083 -0.095,0.11c-0.045,0.026 -0.098,0.039 -0.159,0.039Z" style="fill:#fff;fill-rule:nonzero;"/></g><g transform="matrix(331.314468,0,0,331.314468,2646.059378,614.588338)"><path d="M0.345,0.009c-0.064,0 -0.12,-0.012 -0.168,-0.036c-0.048,-0.024 -0.085,-0.058 -0.111,-0.1c-0.026,-0.042 -0.039,-0.09 -0.039,-0.144c0,-0.055 0.013,-0.103 0.039,-0.145c0.026,-0.042 0.061,-0.075 0.106,-0.099c0.045,-0.024 0.096,-0.036 0.153,-0.036c0.053,0 0.102,0.011 0.146,0.033c0.044,0.022 0.079,0.054 0.105,0.095c0.026,0.042 0.039,0.093 0.039,0.153c0,0.007 -0,0.015 -0.001,0.023c-0.001,0.009 -0.001,0.017 -0.002,0.024l-0.429,0l0,-0.1l0.329,0l-0.072,0.028c0,-0.025 -0.005,-0.046 -0.014,-0.064c-0.01,-0.018 -0.023,-0.032 -0.04,-0.042c-0.017,-0.01 -0.037,-0.015 -0.059,-0.015c-0.023,0 -0.043,0.005 -0.06,0.015c-0.017,0.01 -0.03,0.024 -0.04,0.042c-0.009,0.018 -0.014,0.04 -0.014,0.065l0,0.029c0,0.026 0.006,0.049 0.017,0.069c0.011,0.019 0.027,0.034 0.048,0.044c0.021,0.01 0.045,0.015 0.074,0.015c0.027,0 0.05,-0.004 0.069,-0.012c0.019,-0.008 0.038,-0.019 0.056,-0.035l0.1,0.104c-0.026,0.028 -0.058,0.05 -0.096,0.065c-0.038,0.015 -0.083,0.022 -0.135,0.022Z" style="fill:#fff;fill-rule:nonzero;"/></g><g transform="matrix(331.314468,0,0,331.314468,2858.763267,614.588338)"></g></g><g transform="matrix(0.913866,0,0,1,74.111905,0)"><g transform="matrix(331.314468,0,0,331.314468,860.423674,958.501101)"><path d="M0.316,0.014c-0.057,0 -0.112,-0.007 -0.165,-0.021c-0.053,-0.014 -0.096,-0.033 -0.129,-0.055l0.065,-0.147c0.031,0.02 0.068,0.037 0.109,0.05c0.041,0.013 0.082,0.019 0.122,0.019c0.028,0 0.05,-0.002 0.066,-0.007c0.016,-0.005 0.028,-0.011 0.036,-0.02c0.008,-0.009 0.011,-0.019 0.011,-0.03c-0,-0.016 -0.007,-0.028 -0.022,-0.038c-0.014,-0.009 -0.033,-0.017 -0.057,-0.023c-0.024,-0.006 -0.049,-0.012 -0.078,-0.018c-0.028,-0.006 -0.056,-0.014 -0.085,-0.023c-0.028,-0.009 -0.054,-0.021 -0.078,-0.036c-0.024,-0.015 -0.042,-0.035 -0.057,-0.059c-0.014,-0.025 -0.022,-0.056 -0.022,-0.093c0,-0.041 0.011,-0.079 0.034,-0.114c0.023,-0.034 0.057,-0.062 0.103,-0.082c0.046,-0.021 0.103,-0.031 0.173,-0.031c0.045,0 0.09,0.005 0.135,0.015c0.044,0.01 0.084,0.026 0.118,0.046l-0.06,0.146c-0.033,-0.018 -0.066,-0.031 -0.099,-0.04c-0.033,-0.009 -0.064,-0.013 -0.095,-0.013c-0.027,0 -0.049,0.003 -0.066,0.008c-0.017,0.006 -0.029,0.013 -0.036,0.023c-0.007,0.009 -0.011,0.02 -0.011,0.031c0,0.015 0.007,0.028 0.022,0.037c0.014,0.009 0.033,0.016 0.057,0.022c0.024,0.006 0.049,0.011 0.078,0.017c0.028,0.006 0.057,0.013 0.085,0.022c0.028,0.009 0.054,0.021 0.078,0.036c0.024,0.015 0.042,0.035 0.057,0.059c0.014,0.024 0.022,0.055 0.022,0.092c0,0.041 -0.011,0.078 -0.034,0.113c-0.023,0.034 -0.057,0.062 -0.103,0.082c-0.046,0.021 -0.104,0.031 -0.173,0.031Z" style="fill:#fff;fill-rule:nonzero;"/></g><g transform="matrix(331.314468,0,0,331.314468,1074.784135,958.501101)"><path d="M0.303,0.009c-0.069,0 -0.123,-0.017 -0.162,-0.051c-0.038,-0.034 -0.058,-0.086 -0.058,-0.156l0,-0.465l0.19,0l0,0.463c0,0.02 0.005,0.035 0.016,0.046c0.01,0.011 0.024,0.016 0.041,0.016c0.022,0 0.041,-0.006 0.058,-0.017l0.047,0.133c-0.017,0.011 -0.036,0.018 -0.06,0.024c-0.023,0.005 -0.048,0.008 -0.073,0.008Zm-0.299,-0.409l0,-0.142l0.393,0l0,0.142l-0.393,0Z" style="fill:#fff;fill-rule:nonzero;"/></g><g transform="matrix(331.314468,0,0,331.314468,1222.881702,958.501101)"><path d="M0.289,0.009c-0.044,0 -0.084,-0.009 -0.119,-0.026c-0.035,-0.017 -0.062,-0.044 -0.082,-0.081c-0.02,-0.037 -0.03,-0.084 -0.03,-0.141l0,-0.303l0.19,0l0,0.272c0,0.042 0.008,0.072 0.024,0.09c0.016,0.018 0.038,0.027 0.067,0.027c0.019,0 0.036,-0.004 0.051,-0.013c0.015,-0.009 0.027,-0.023 0.037,-0.042c0.009,-0.019 0.014,-0.043 0.014,-0.073l0,-0.262l0.19,0l0,0.542l-0.181,-0l0,-0.153l0.035,0.043c-0.019,0.04 -0.046,0.069 -0.081,0.089c-0.035,0.02 -0.074,0.029 -0.115,0.029Z" style="fill:#fff;fill-rule:nonzero;"/></g><g transform="matrix(331.314468,0,0,331.314468,1452.151314,958.501101)"><path d="M0.297,0.009c-0.049,0 -0.093,-0.011 -0.134,-0.034c-0.041,-0.023 -0.073,-0.055 -0.097,-0.097c-0.024,-0.042 -0.036,-0.091 -0.036,-0.149c-0,-0.057 0.012,-0.107 0.036,-0.149c0.024,-0.042 0.056,-0.074 0.097,-0.097c0.041,-0.023 0.085,-0.034 0.134,-0.034c0.047,0 0.086,0.01 0.119,0.03c0.032,0.02 0.057,0.051 0.074,0.092c0.017,0.041 0.025,0.094 0.025,0.157c0,0.064 -0.008,0.117 -0.024,0.158c-0.016,0.041 -0.04,0.072 -0.072,0.092c-0.032,0.02 -0.073,0.03 -0.122,0.03Zm0.04,-0.151c0.021,0 0.041,-0.005 0.058,-0.015c0.017,-0.01 0.031,-0.025 0.041,-0.044c0.01,-0.02 0.015,-0.043 0.015,-0.07c0,-0.028 -0.005,-0.051 -0.015,-0.07c-0.01,-0.019 -0.024,-0.033 -0.041,-0.043c-0.017,-0.01 -0.036,-0.015 -0.058,-0.015c-0.021,0 -0.041,0.005 -0.058,0.015c-0.017,0.01 -0.031,0.024 -0.041,0.043c-0.01,0.019 -0.015,0.042 -0.015,0.07c0,0.027 0.005,0.05 0.015,0.07c0.01,0.02 0.024,0.034 0.041,0.044c0.017,0.01 0.036,0.015 0.058,0.015Zm0.12,0.142l0,-0.093l0.001,-0.179l-0.01,-0.179l0,-0.291l0.19,0l0,0.742l-0.181,-0Z" style="fill:#fff;fill-rule:nonzero;"/></g><g transform="matrix(331.314468,0,0,331.314468,1683.408813,958.501101)"><path d="M0.061,-0l0,-0.542l0.19,0l0,0.542l-0.19,-0Zm0.095,-0.602c-0.035,0 -0.063,-0.01 -0.084,-0.029c-0.021,-0.019 -0.032,-0.043 -0.032,-0.072c0,-0.029 0.011,-0.052 0.032,-0.072c0.021,-0.019 0.049,-0.029 0.084,-0.029c0.035,0 0.063,0.009 0.084,0.027c0.021,0.018 0.032,0.042 0.032,0.07c0,0.03 -0.011,0.055 -0.032,0.075c-0.021,0.02 -0.049,0.029 -0.084,0.029Z" style="fill:#fff;fill-rule:nonzero;"/></g><g transform="matrix(331.314468,0,0,331.314468,1787.110241,958.501101)"><path d="M0.333,0.009c-0.059,0 -0.112,-0.012 -0.158,-0.036c-0.046,-0.024 -0.082,-0.057 -0.109,-0.099c-0.026,-0.042 -0.04,-0.091 -0.04,-0.145c0,-0.055 0.013,-0.103 0.04,-0.145c0.026,-0.042 0.063,-0.075 0.108,-0.099c0.046,-0.024 0.099,-0.036 0.158,-0.036c0.06,0 0.112,0.012 0.159,0.036c0.046,0.024 0.082,0.057 0.108,0.099c0.026,0.042 0.039,0.09 0.039,0.145c0,0.055 -0.013,0.103 -0.039,0.145c-0.026,0.042 -0.062,0.075 -0.109,0.099c-0.046,0.024 -0.099,0.036 -0.159,0.036Zm0,-0.151c0.022,0 0.041,-0.005 0.058,-0.015c0.017,-0.01 0.031,-0.025 0.041,-0.044c0.01,-0.02 0.015,-0.043 0.015,-0.07c-0,-0.028 -0.005,-0.051 -0.015,-0.07c-0.01,-0.019 -0.024,-0.033 -0.041,-0.043c-0.017,-0.01 -0.036,-0.015 -0.058,-0.015c-0.022,0 -0.041,0.005 -0.058,0.015c-0.017,0.01 -0.031,0.024 -0.041,0.043c-0.01,0.019 -0.015,0.042 -0.015,0.07c0,0.027 0.005,0.05 0.015,0.07c0.01,0.02 0.024,0.034 0.041,0.044c0.017,0.01 0.036,0.015 0.058,0.015Z" style="fill:#fff;fill-rule:nonzero;"/></g><g transform="matrix(331.314468,0,0,331.314468,1993.264009,958.501101)"><path d="M0.243,-0l-0.227,-0.7l0.204,0l0.19,0.606l-0.102,0l0.2,-0.606l0.183,-0l0.19,0.606l-0.098,0l0.197,-0.606l0.188,-0l-0.227,0.7l-0.212,-0l-0.162,-0.515l0.057,0l-0.168,0.515l-0.212,-0Z" style="fill:#fff;fill-rule:nonzero;"/></g><g transform="matrix(331.314468,0,0,331.314468,2365.600545,958.501101)"><path d="M0.345,0.009c-0.064,0 -0.12,-0.012 -0.168,-0.036c-0.048,-0.024 -0.085,-0.058 -0.111,-0.1c-0.026,-0.042 -0.039,-0.09 -0.039,-0.144c0,-0.055 0.013,-0.103 0.039,-0.145c0.026,-0.042 0.061,-0.075 0.106,-0.099c0.045,-0.024 0.096,-0.036 0.153,-0.036c0.053,0 0.102,0.011 0.146,0.033c0.044,0.022 0.079,0.054 0.105,0.095c0.026,0.042 0.039,0.093 0.039,0.153c0,0.007 -0,0.015 -0.001,0.023c-0.001,0.009 -0.001,0.017 -0.002,0.024l-0.429,0l0,-0.1l0.329,0l-0.072,0.028c0,-0.025 -0.005,-0.046 -0.014,-0.064c-0.01,-0.018 -0.023,-0.032 -0.04,-0.042c-0.017,-0.01 -0.037,-0.015 -0.059,-0.015c-0.023,0 -0.043,0.005 -0.06,0.015c-0.017,0.01 -0.03,0.024 -0.04,0.042c-0.009,0.018 -0.014,0.04 -0.014,0.065l0,0.029c0,0.026 0.006,0.049 0.017,0.069c0.011,0.019 0.027,0.034 0.048,0.044c0.021,0.01 0.045,0.015 0.074,0.015c0.027,0 0.05,-0.004 0.069,-0.012c0.019,-0.008 0.038,-0.019 0.056,-0.035l0.1,0.104c-0.026,0.028 -0.058,0.05 -0.096,0.065c-0.038,0.015 -0.083,0.022 -0.135,0.022Z" style="fill:#fff;fill-rule:nonzero;"/></g><g transform="matrix(331.314468,0,0,331.314468,2578.304434,958.501101)"><path d="M0.402,0.009c-0.048,0 -0.089,-0.01 -0.121,-0.03c-0.032,-0.02 -0.057,-0.051 -0.073,-0.092c-0.016,-0.041 -0.024,-0.094 -0.024,-0.158c0,-0.064 0.008,-0.116 0.025,-0.157c0.017,-0.041 0.042,-0.072 0.074,-0.092c0.033,-0.02 0.072,-0.03 0.118,-0.03c0.049,0 0.094,0.011 0.134,0.034c0.04,0.023 0.072,0.055 0.096,0.097c0.024,0.042 0.036,0.091 0.036,0.149c0,0.057 -0.012,0.107 -0.036,0.149c-0.024,0.042 -0.056,0.074 -0.096,0.097c-0.04,0.023 -0.085,0.034 -0.134,0.034Zm-0.34,-0.009l0,-0.742l0.19,0l0,0.291l-0.01,0.179l0.001,0.179l0,0.093l-0.181,-0Zm0.3,-0.142c0.021,0 0.041,-0.005 0.058,-0.015c0.017,-0.01 0.031,-0.025 0.041,-0.044c0.01,-0.02 0.015,-0.043 0.015,-0.07c-0,-0.028 -0.005,-0.051 -0.015,-0.07c-0.01,-0.019 -0.024,-0.033 -0.041,-0.043c-0.017,-0.01 -0.036,-0.015 -0.058,-0.015c-0.021,0 -0.041,0.005 -0.058,0.015c-0.017,0.01 -0.031,0.024 -0.041,0.043c-0.01,0.019 -0.015,0.042 -0.015,0.07c0,0.027 0.005,0.05 0.015,0.07c0.01,0.02 0.024,0.034 0.041,0.044c0.017,0.01 0.036,0.015 0.058,0.015Z" style="fill:#fff;fill-rule:nonzero;"/></g></g></g></g></svg>