<?xml version="1.0" encoding="UTF-8" standalone="no"?><!DOCTYPE svg PUBLIC "-//W3C//DTD SVG 1.1//EN" "http://www.w3.org/Graphics/SVG/1.1/DTD/svg11.dtd"><svg width="100%" height="100%" viewBox="0 0 672 751" version="1.1" xmlns="http://www.w3.org/2000/svg" xmlns:xlink="http://www.w3.org/1999/xlink" xml:space="preserve" xmlns:serif="http://www.serif.com/" style="fill-rule:evenodd;clip-rule:evenodd;stroke-linejoin:round;stroke-miterlimit:2;"><g id="short"><path d="M262.769,651.599l-24.331,20.654l-94.795,-6.666l-73.767,-262.141l-0,-231.95l145.125,-101.618l110.911,7.8c20.979,1.475 39.015,6.83 54.242,15.593c11.738,6.751 21.53,15.23 29.406,25.406c4.245,-3.662 28.676,-20.583 37.771,-24.524c15.198,-6.586 34.156,-9.565 57.007,-7.958c13.926,0.979 27.681,3.701 41.262,8.184c14.25,4.704 26.909,11.206 38.029,19.408l16.176,11.93l-27.372,72.769c8.713,7.025 15.826,15.827 21.22,26.5c5.383,10.643 8.444,23.612 8.444,39.064c0,17.089 -4.377,32.468 -12.909,46.2c-3.784,6.09 -8.351,11.624 -13.737,16.556l7.461,0.525l-73.873,252.128l-145.125,101.618l-94.909,-6.674l-6.239,-22.803Z" style="fill:#fff;"/><path d="M615.577,326.996l-79.629,271.772l-163.178,114.258l-253.252,-17.81l-80.891,-287.459l-0,-252.531l167.522,-117.3l121.957,8.576c26.182,1.841 48.628,8.743 67.633,19.678c6.264,3.603 12.099,7.587 17.514,11.946c8.377,-5.444 16.819,-10.554 21.658,-12.65c19.111,-8.281 42.887,-12.478 71.623,-10.457c16.491,1.16 32.783,4.373 48.866,9.683c17.538,5.79 33.095,13.839 46.781,23.933l35.197,25.96l-28.68,76.244c4.855,6.055 9.147,12.728 12.846,20.044c7.334,14.502 11.806,32.109 11.806,53.165c0,23.199 -6.033,44.051 -17.615,62.692l-0.158,0.254Zm-352.808,324.603l6.239,22.803l94.909,6.674l145.125,-101.618l73.873,-252.128l-7.461,-0.525c5.386,-4.932 9.953,-10.466 13.737,-16.556c8.532,-13.732 12.909,-29.111 12.909,-46.2c0,-15.452 -3.062,-28.422 -8.444,-39.064c-5.394,-10.673 -12.507,-19.475 -21.22,-26.5l27.372,-72.769l-16.176,-11.93c-11.12,-8.201 -23.779,-14.703 -38.029,-19.408c-13.581,-4.484 -27.336,-7.205 -41.262,-8.184c-22.851,-1.607 -41.81,1.373 -57.007,7.958c-9.095,3.94 -33.527,20.861 -37.771,24.524c-7.877,-10.176 -17.669,-18.655 -29.406,-25.406c-15.227,-8.762 -33.263,-14.117 -54.242,-15.593l-110.911,-7.8l-145.125,101.618l0,231.95l73.767,262.141l94.795,6.666l24.331,-20.654Z"/><g id="inner"><path d="M96.452,404.047l0,-204.043l82.472,5.8c16.554,1.164 30.839,5.204 42.854,12.118c12.018,6.912 21.291,16.258 27.818,28.04c6.53,11.779 9.794,25.417 9.794,40.914c0,15.44 -3.265,28.558 -9.794,39.355c-6.527,10.794 -15.799,18.836 -27.818,24.128c-12.015,5.288 -26.3,7.351 -42.854,6.186l-54.09,-3.804l22.793,-23.588l0,78.493l-51.176,-3.599Zm51.176,-68.581l-22.793,-28.27l51.095,3.593c10.684,0.751 18.662,-1.322 23.935,-6.219c5.276,-4.9 7.914,-12.008 7.914,-21.323c0,-9.373 -2.638,-16.879 -7.914,-22.518c-5.273,-5.642 -13.252,-8.839 -23.935,-9.59l-51.095,-3.593l22.793,-25.064l0,112.984Z" style="fill-rule:nonzero;"/><path d="M350.128,425.917c-14.778,-1.039 -29.013,-4.104 -42.705,-9.193c-13.692,-5.092 -24.833,-11.23 -33.423,-18.414l16.821,-41.539c8.13,6.511 17.504,11.99 28.12,16.438c10.616,4.448 21.131,7.038 31.542,7.77c7.138,0.502 12.825,0.21 17.063,-0.877c4.24,-1.089 7.349,-2.813 9.326,-5.169c1.977,-2.357 2.966,-5.184 2.966,-8.481c0,-4.597 -1.862,-8.381 -5.585,-11.351c-3.721,-2.973 -8.619,-5.552 -14.694,-7.738c-6.075,-2.188 -12.749,-4.41 -20.021,-6.664c-7.272,-2.254 -14.575,-4.984 -21.909,-8.19c-7.331,-3.206 -14.035,-7.211 -20.11,-12.017c-6.075,-4.806 -10.974,-10.922 -14.698,-18.35c-3.721,-7.43 -5.581,-16.587 -5.581,-27.469c0,-12.088 2.955,-22.911 8.866,-32.47c5.911,-9.559 14.8,-16.909 26.667,-22.05c11.87,-5.144 26.729,-7.088 44.578,-5.833c11.744,0.826 23.342,3.129 34.795,6.91c11.453,3.781 21.648,8.968 30.586,15.559l-15.614,41.51c-8.634,-5.842 -17.166,-10.336 -25.598,-13.482c-8.429,-3.149 -16.631,-5.004 -24.605,-5.565c-7.03,-0.494 -12.695,-0.068 -16.994,1.278c-4.299,1.343 -7.395,3.313 -9.286,5.91c-1.889,2.594 -2.833,5.568 -2.833,8.923c0,4.463 1.86,8.148 5.581,11.055c3.724,2.903 8.621,5.401 14.694,7.492c6.075,2.088 12.778,4.243 20.11,6.465c7.334,2.219 14.637,4.916 21.909,8.09c7.275,3.171 13.95,7.145 20.025,11.92c6.075,4.775 10.973,10.845 14.694,18.208c3.724,7.361 5.585,16.385 5.585,27.073c0,11.893 -2.969,22.618 -8.907,32.175c-5.938,9.557 -14.826,16.942 -26.663,22.155c-11.835,5.21 -26.736,7.183 -44.703,5.92Z" style="fill-rule:nonzero;"/><path d="M164.16,640.388l-58.577,-208.162l52.746,3.709l49.15,180.067l-26.458,-1.861l51.753,-172.971l47.148,3.316l48.96,180.054l-25.412,-1.787l50.901,-173.031l48.637,3.42l-58.577,199.923l-54.763,-3.851l-41.878,-153.071l14.678,1.032l-43.464,147.07l-54.844,-3.857Z" style="fill-rule:nonzero;"/></g></g></svg>